<?xml version="1.0" standalone="no"?>
<!DOCTYPE svg PUBLIC "-//W3C//DTD SVG 1.1//EN" "http://www.w3.org/Graphics/SVG/1.1/DTD/svg11.dtd" >
<svg xmlns="http://www.w3.org/2000/svg">
<metadata>Generated by IcoMoon</metadata>
<defs>
<font id="icomoon" horiz-adv-x="1024">
<font-face units-per-em="1024" ascent="960" descent="-64" />
<missing-glyph horiz-adv-x="1024" />
<glyph unicode="&#x20;" horiz-adv-x="512" d="" />
<glyph unicode="&#xe900;" d="M899.001 730.13l-16.419-670.543c-1.345-18.438-16.647-32.74-35.134-32.839h-670.897c-18.487 0.098-33.789 14.4-35.134 32.839l-16.419 670.72c47.139-0.883 47.669-52.789 95.691-52.789 48.552 0 48.552 52.966 97.103 52.966s48.375-52.966 96.927-52.966 48.552 52.966 97.103 52.966 48.552-52.966 97.103-52.966 48.552 52.966 97.103 52.966 48.552-52.966 97.28-52.966c47.846 0 48.552 51.73 95.691 52.612z" />
<glyph unicode="&#xe901;" d="M300.138 880.552c0-24.377-19.761-44.138-44.138-44.138s-44.138 19.761-44.138 44.138c0 24.377 19.761 44.138 44.138 44.138s44.138-19.761 44.138-44.138z" />
<glyph unicode="&#xe902;" d="M688.552 889.379c0-19.501-15.809-35.31-35.31-35.31s-35.31 15.809-35.31 35.31c0 19.501 15.809 35.31 35.31 35.31s35.31-15.809 35.31-35.31z" />
<glyph unicode="&#xe903;" d="M564.966 836.414c0-9.751-7.904-17.655-17.655-17.655s-17.655 7.904-17.655 17.655c0 9.751 7.904 17.655 17.655 17.655s17.655-7.904 17.655-17.655z" />
<glyph unicode="&#xe904;" d="M353.103 801.103c0-9.751-7.904-17.655-17.655-17.655s-17.655 7.904-17.655 17.655c0 9.751 7.904 17.655 17.655 17.655s17.655-7.904 17.655-17.655z" />
<glyph unicode="&#xe905;" d="M635.586 765.793c0-9.751-7.904-17.655-17.655-17.655s-17.655 7.904-17.655 17.655c0 9.751 7.904 17.655 17.655 17.655s17.655-7.904 17.655-17.655z" />
<glyph unicode="&#xe906;" d="M829.793 783.448c0-9.751-7.904-17.655-17.655-17.655s-17.655 7.904-17.655 17.655c0 9.751 7.904 17.655 17.655 17.655s17.655-7.904 17.655-17.655z" />
<glyph unicode="&#xe907;" d="M1024 748.138c-0.058-19.477-15.833-35.252-35.31-35.31h-20.127l-45.903-643.178c-4.129-55.313-50.111-98.143-105.578-98.339h-610.163c-55.466 0.196-101.449 43.026-105.578 98.339l-45.903 643.178h-20.127c-19.501 0-35.31 15.809-35.31 35.31s15.809 35.31 35.31 35.31h52.966c18.548-0.023 33.943-14.341 35.31-32.839l1.412-20.303 46.786-655.537c1.345-18.438 16.647-32.74 35.134-32.839h610.163c18.487 0.098 33.789 14.4 35.134 32.839l46.786 655.36 1.412 20.48c1.367 18.498 16.762 32.815 35.31 32.839h52.966c19.477-0.058 35.252-15.833 35.31-35.31z" />
<glyph unicode="&#xe908;" d="M385.607 459.423c4.893 7.035 7.093 15.595 6.197 24.117-2.966 25.512-32.415 37.87-55.667 37.553-9.098-0.004-17.977-2.795-25.441-7.998-7.453-6.226-13.292-14.161-17.020-23.128-4.33-8.416-14.619-11.791-23.093-7.574l-30.685 15.166c-13.436 6.638-9.357 20.886-3.708 31.514 6.493 13.188 15.398 25.045 26.253 34.957 11.764 9.732 25.506 16.787 40.271 20.674 30.234 8.059 62.334 5.299 90.748-7.804l0.83-0.388c30.285-13.734 53.432-39.526 63.823-71.115 10.733-35.17-0.353-73.358-28.248-97.315-2.278-1.942-4.59-3.778-6.974-5.508 14.357-8.499 26.91-19.727 36.952-33.050 16.179-22.039 22.066-49.984 16.154-76.676-8.914-41.575-40.929-74.325-82.291-84.18-19.069-5.374-38.804-8.014-58.615-7.839-33.033 0-69.632 4.979-94.473 28.707-8.369 7.98-16.578 21.010-6.462 31.020l24.294 24.029c5.501 5.29 13.796 6.405 20.498 2.754 5.544-3.037 9.64-7.962 14.936-11.352 13.809-6.775 29.309-9.329 44.562-7.345 15.91-0.225 31.691 2.884 46.327 9.128 12.325 4.633 21.366 15.325 23.887 28.248 2.148 8.158 0.486 16.85-4.52 23.64-13.577 18.626-50.476 30.508-73.287 35.593-7.706 1.739-13.15 8.626-13.065 16.525v37.817c0.133 8.619 6.652 15.796 15.219 16.755 15.187 1.34 29.908 5.928 43.167 13.453 3.689 2.622 6.881 5.881 9.428 9.622z" />
<glyph unicode="&#xe909;" d="M679.724 589.241c-73.092 0-132.414-52.966-132.414-194.207s59.321-194.207 132.414-194.207 132.414 52.966 132.414 194.207-59.321 194.207-132.414 194.207zM679.724 271.448c-40.96 0-61.793 41.666-61.793 123.586s20.833 123.586 61.793 123.586 61.793-41.666 61.793-123.586-20.833-123.586-61.793-123.586z" />
<glyph unicode="&#xe90a;" d="M899.001 730.13l-16.419-670.543c-1.345-18.438-16.647-32.74-35.134-32.839h-670.897c-18.487 0.098-33.789 14.4-35.134 32.839l-16.419 670.72c47.139-0.883 47.669-52.789 95.691-52.789 48.552 0 48.552 52.966 97.103 52.966s48.375-52.966 96.927-52.966 48.552 52.966 97.103 52.966 48.552-52.966 97.103-52.966 48.552 52.966 97.103 52.966 48.552-52.966 97.28-52.966c47.846 0 48.552 51.73 95.691 52.612z" />
<glyph unicode="&#xe90b;" d="M300.138 880.552c0-24.377-19.761-44.138-44.138-44.138s-44.138 19.761-44.138 44.138c0 24.377 19.761 44.138 44.138 44.138s44.138-19.761 44.138-44.138z" />
<glyph unicode="&#xe90c;" d="M688.552 889.379c0-19.501-15.809-35.31-35.31-35.31s-35.31 15.809-35.31 35.31c0 19.501 15.809 35.31 35.31 35.31s35.31-15.809 35.31-35.31z" />
<glyph unicode="&#xe90d;" d="M564.966 836.414c0-9.751-7.904-17.655-17.655-17.655s-17.655 7.904-17.655 17.655c0 9.751 7.904 17.655 17.655 17.655s17.655-7.904 17.655-17.655z" />
<glyph unicode="&#xe90e;" d="M353.103 801.103c0-9.751-7.904-17.655-17.655-17.655s-17.655 7.904-17.655 17.655c0 9.751 7.904 17.655 17.655 17.655s17.655-7.904 17.655-17.655z" />
<glyph unicode="&#xe90f;" d="M635.586 765.793c0-9.751-7.904-17.655-17.655-17.655s-17.655 7.904-17.655 17.655c0 9.751 7.904 17.655 17.655 17.655s17.655-7.904 17.655-17.655z" />
<glyph unicode="&#xe910;" d="M829.793 783.448c0-9.751-7.904-17.655-17.655-17.655s-17.655 7.904-17.655 17.655c0 9.751 7.904 17.655 17.655 17.655s17.655-7.904 17.655-17.655z" />
<glyph unicode="&#xe911;" d="M1024 748.138c-0.058-19.477-15.833-35.252-35.31-35.31h-20.127l-45.903-643.178c-4.129-55.313-50.111-98.143-105.578-98.339h-610.163c-55.466 0.196-101.449 43.026-105.578 98.339l-45.903 643.178h-20.127c-19.501 0-35.31 15.809-35.31 35.31s15.809 35.31 35.31 35.31h52.966c18.548-0.023 33.943-14.341 35.31-32.839l1.412-20.303 46.786-655.537c1.345-18.438 16.647-32.74 35.134-32.839h610.163c18.487 0.098 33.789 14.4 35.134 32.839l46.786 655.36 1.412 20.48c1.367 18.498 16.762 32.815 35.31 32.839h52.966c19.477-0.058 35.252-15.833 35.31-35.31z" />
<glyph unicode="&#xe912;" d="M688.552 589.241c-68.326 0-123.586-50.494-123.586-185.379s55.261-185.379 123.586-185.379 123.586 50.494 123.586 185.379-55.261 185.379-123.586 185.379zM688.552 289.103c-43.785 0-52.966 62.323-52.966 114.759s9.181 114.759 52.966 114.759 52.966-62.323 52.966-114.759-9.181-114.759-52.966-114.759z" />
<glyph unicode="&#xe913;" d="M476.69 359.724h-17.655v194.207c-0.058 19.477-15.833 35.252-35.31 35.31h-30.367c-27.519-0.001-52.53-15.986-64.088-40.96l-96.574-209.037c-4.963-10.99-4.033-23.744 2.472-33.898 6.467-10.122 17.65-16.246 29.661-16.243h123.586v-35.31c0-19.501 15.809-35.31 35.31-35.31s35.31 15.809 35.31 35.31v35.31h17.655c19.501 0 35.31 15.809 35.31 35.31s-15.809 35.31-35.31 35.31zM388.414 359.724h-68.326l68.326 148.127z" />
<glyph unicode="&#xe914;" d="M899.001 730.13l-16.419-670.543c-1.345-18.438-16.647-32.74-35.134-32.839h-670.897c-18.487 0.098-33.789 14.4-35.134 32.839l-16.419 670.72c47.139-0.883 47.669-52.789 95.691-52.789 48.552 0 48.552 52.966 97.103 52.966s48.375-52.966 96.927-52.966 48.552 52.966 97.103 52.966 48.552-52.966 97.103-52.966 48.552 52.966 97.103 52.966 48.552-52.966 97.28-52.966c47.846 0 48.552 51.73 95.691 52.612z" />
<glyph unicode="&#xe915;" d="M300.138 880.552c0-24.377-19.761-44.138-44.138-44.138s-44.138 19.761-44.138 44.138c0 24.377 19.761 44.138 44.138 44.138s44.138-19.761 44.138-44.138z" />
<glyph unicode="&#xe916;" d="M688.552 889.379c0-19.501-15.809-35.31-35.31-35.31s-35.31 15.809-35.31 35.31c0 19.501 15.809 35.31 35.31 35.31s35.31-15.809 35.31-35.31z" />
<glyph unicode="&#xe917;" d="M564.966 836.414c0-9.751-7.904-17.655-17.655-17.655s-17.655 7.904-17.655 17.655c0 9.751 7.904 17.655 17.655 17.655s17.655-7.904 17.655-17.655z" />
<glyph unicode="&#xe918;" d="M353.103 801.103c0-9.751-7.904-17.655-17.655-17.655s-17.655 7.904-17.655 17.655c0 9.751 7.904 17.655 17.655 17.655s17.655-7.904 17.655-17.655z" />
<glyph unicode="&#xe919;" d="M635.586 765.793c0-9.751-7.904-17.655-17.655-17.655s-17.655 7.904-17.655 17.655c0 9.751 7.904 17.655 17.655 17.655s17.655-7.904 17.655-17.655z" />
<glyph unicode="&#xe91a;" d="M829.793 783.448c0-9.751-7.904-17.655-17.655-17.655s-17.655 7.904-17.655 17.655c0 9.751 7.904 17.655 17.655 17.655s17.655-7.904 17.655-17.655z" />
<glyph unicode="&#xe91b;" d="M1024 748.138c-0.058-19.477-15.833-35.252-35.31-35.31h-20.127l-45.903-643.178c-4.129-55.313-50.111-98.143-105.578-98.339h-610.163c-55.466 0.196-101.449 43.026-105.578 98.339l-45.903 643.178h-20.127c-19.501 0-35.31 15.809-35.31 35.31s15.809 35.31 35.31 35.31h52.966c18.548-0.023 33.943-14.341 35.31-32.839l1.412-20.303 46.786-655.537c1.345-18.438 16.647-32.74 35.134-32.839h610.163c18.487 0.098 33.789 14.4 35.134 32.839l46.786 655.36 1.412 20.48c1.367 18.498 16.762 32.815 35.31 32.839h52.966c19.477-0.058 35.252-15.833 35.31-35.31z" />
<glyph unicode="&#xe91c;" d="M662.069 606.897c-73.092 0-132.414-52.966-132.414-194.207s59.321-194.207 132.414-194.207 132.414 52.966 132.414 194.207-59.321 194.207-132.414 194.207zM662.069 289.103c-40.96 0-61.793 41.666-61.793 123.586s20.833 123.586 61.793 123.586 61.793-41.666 61.793-123.586-20.833-123.586-61.793-123.586z" />
<glyph unicode="&#xe91d;" d="M328.757 218.483c-26.038 0.282-51.841 4.956-76.323 13.824-18.355 7.168-27.555 27.745-20.657 46.204 3.164 8.861 9.758 16.079 18.297 20.030s18.309 4.304 27.112 0.98c14.301-5.297 61.405-17.055 87.993-0.9 4.696 2.842 18.962 11.511 23.552 44.138 4.29 30.543-6.374 41.719-9.869 45.391-20.815 21.804-71.274 23.905-92.531 21.539-10.883-1.207-21.703 2.753-29.237 10.699-7.618 8.013-11.155 19.067-9.604 30.014l17.655 125.617c2.304 17.594 17.249 30.782 34.993 30.879h123.586c19.823 0 35.893-16.070 35.893-35.893s-16.070-35.893-35.893-35.893h-92.954l-7.539-53.566c39.539-1.104 77.337-16.503 106.39-43.343 25.936-28.535 36.734-67.715 29.078-105.507-3.126-39.202-24.443-74.673-57.591-95.832-21.994-12.599-47.010-18.954-72.351-18.379z" />
<glyph unicode="&#xe91e;" d="M899.001 730.13l-16.419-670.543c-1.345-18.438-16.647-32.74-35.134-32.839h-670.897c-18.487 0.098-33.789 14.4-35.134 32.839l-16.419 670.72c47.139-0.883 47.669-52.789 95.691-52.789 48.552 0 48.552 52.966 97.103 52.966s48.375-52.966 96.927-52.966 48.552 52.966 97.103 52.966 48.552-52.966 97.103-52.966 48.552 52.966 97.103 52.966 48.552-52.966 97.28-52.966c47.846 0 48.552 51.73 95.691 52.612z" />
<glyph unicode="&#xe91f;" d="M300.138 880.552c0-24.377-19.761-44.138-44.138-44.138s-44.138 19.761-44.138 44.138c0 24.377 19.761 44.138 44.138 44.138s44.138-19.761 44.138-44.138z" />
<glyph unicode="&#xe920;" d="M688.552 889.379c0-19.501-15.809-35.31-35.31-35.31s-35.31 15.809-35.31 35.31c0 19.501 15.809 35.31 35.31 35.31s35.31-15.809 35.31-35.31z" />
<glyph unicode="&#xe921;" d="M564.966 836.414c0-9.751-7.904-17.655-17.655-17.655s-17.655 7.904-17.655 17.655c0 9.751 7.904 17.655 17.655 17.655s17.655-7.904 17.655-17.655z" />
<glyph unicode="&#xe922;" d="M353.103 801.103c0-9.751-7.904-17.655-17.655-17.655s-17.655 7.904-17.655 17.655c0 9.751 7.904 17.655 17.655 17.655s17.655-7.904 17.655-17.655z" />
<glyph unicode="&#xe923;" d="M635.586 765.793c0-9.751-7.904-17.655-17.655-17.655s-17.655 7.904-17.655 17.655c0 9.751 7.904 17.655 17.655 17.655s17.655-7.904 17.655-17.655z" />
<glyph unicode="&#xe924;" d="M829.793 783.448c0-9.751-7.904-17.655-17.655-17.655s-17.655 7.904-17.655 17.655c0 9.751 7.904 17.655 17.655 17.655s17.655-7.904 17.655-17.655z" />
<glyph unicode="&#xe925;" d="M1024 748.138c-0.058-19.477-15.833-35.252-35.31-35.31h-20.127l-45.903-643.178c-4.129-55.313-50.111-98.143-105.578-98.339h-610.163c-55.466 0.196-101.449 43.026-105.578 98.339l-45.903 643.178h-20.127c-19.501 0-35.31 15.809-35.31 35.31s15.809 35.31 35.31 35.31h52.966c18.548-0.023 33.943-14.341 35.31-32.839l1.412-20.303 46.786-655.537c1.345-18.438 16.647-32.74 35.134-32.839h610.163c18.487 0.098 33.789 14.4 35.134 32.839l46.786 655.36 1.412 20.48c1.367 18.498 16.762 32.815 35.31 32.839h52.966c19.477-0.058 35.252-15.833 35.31-35.31z" />
<glyph unicode="&#xe926;" d="M679.724 606.897c-73.092 0-132.414-52.966-132.414-194.207s59.321-194.207 132.414-194.207 132.414 52.966 132.414 194.207-59.321 194.207-132.414 194.207zM679.724 289.103c-40.96 0-61.793 41.666-61.793 123.586s20.833 123.586 61.793 123.586 61.793-41.666 61.793-123.586-20.833-123.586-61.793-123.586z" />
<glyph unicode="&#xe927;" d="M472.099 375.79c-14.521 53.644-63.605 90.585-119.172 89.688-11.47 0.051-22.887-1.555-33.898-4.767 6.924 18.788 18.033 35.753 32.486 49.611 21.027 16.227 46.714 25.264 73.269 25.777 9.265 0.65 16.442 8.367 16.419 17.655v35.487c0.001 4.744-1.908 9.289-5.295 12.611s-7.97 5.139-12.713 5.045c-43.026-0.461-84.593-15.667-117.76-43.079-34.491-33.609-57.688-77.103-66.383-124.469-10.946-48.375-16.419-104.519 5.65-150.599 19.667-41.897 61.255-69.144 107.52-70.444 38.888-0.148 75.593 17.954 99.147 48.897s31.229 71.143 20.732 108.587zM352.927 288.927c-29.252 0-52.966 23.713-52.966 52.966s23.713 52.966 52.966 52.966 52.966-23.713 52.966-52.966c-0.087-29.216-23.75-52.878-52.966-52.966z" />
<glyph unicode="&#xe928;" d="M899.001 730.13l-16.419-670.543c-1.345-18.438-16.647-32.74-35.134-32.839h-670.897c-18.487 0.098-33.789 14.4-35.134 32.839l-16.419 670.72c47.139-0.883 47.669-52.789 95.691-52.789 48.552 0 48.552 52.966 97.103 52.966s48.375-52.966 96.927-52.966 48.552 52.966 97.103 52.966 48.552-52.966 97.103-52.966 48.552 52.966 97.103 52.966 48.552-52.966 97.28-52.966c47.846 0 48.552 51.73 95.691 52.612z" />
<glyph unicode="&#xe929;" d="M300.138 880.552c0-24.377-19.761-44.138-44.138-44.138s-44.138 19.761-44.138 44.138c0 24.377 19.761 44.138 44.138 44.138s44.138-19.761 44.138-44.138z" />
<glyph unicode="&#xe92a;" d="M688.552 889.379c0-19.501-15.809-35.31-35.31-35.31s-35.31 15.809-35.31 35.31c0 19.501 15.809 35.31 35.31 35.31s35.31-15.809 35.31-35.31z" />
<glyph unicode="&#xe92b;" d="M564.966 836.414c0-9.751-7.904-17.655-17.655-17.655s-17.655 7.904-17.655 17.655c0 9.751 7.904 17.655 17.655 17.655s17.655-7.904 17.655-17.655z" />
<glyph unicode="&#xe92c;" d="M353.103 801.103c0-9.751-7.904-17.655-17.655-17.655s-17.655 7.904-17.655 17.655c0 9.751 7.904 17.655 17.655 17.655s17.655-7.904 17.655-17.655z" />
<glyph unicode="&#xe92d;" d="M635.586 765.793c0-9.751-7.904-17.655-17.655-17.655s-17.655 7.904-17.655 17.655c0 9.751 7.904 17.655 17.655 17.655s17.655-7.904 17.655-17.655z" />
<glyph unicode="&#xe92e;" d="M829.793 783.448c0-9.751-7.904-17.655-17.655-17.655s-17.655 7.904-17.655 17.655c0 9.751 7.904 17.655 17.655 17.655s17.655-7.904 17.655-17.655z" />
<glyph unicode="&#xe92f;" d="M1024 748.138c-0.058-19.477-15.833-35.252-35.31-35.31h-20.127l-45.903-643.178c-4.129-55.313-50.111-98.143-105.578-98.339h-610.163c-55.466 0.196-101.449 43.026-105.578 98.339l-45.903 643.178h-20.127c-19.501 0-35.31 15.809-35.31 35.31s15.809 35.31 35.31 35.31h52.966c18.548-0.023 33.943-14.341 35.31-32.839l1.412-20.303 46.786-655.537c1.345-18.438 16.647-32.74 35.134-32.839h610.163c18.487 0.098 33.789 14.4 35.134 32.839l46.786 655.36 1.412 20.48c1.367 18.498 16.762 32.815 35.31 32.839h52.966c19.477-0.058 35.252-15.833 35.31-35.31z" />
<glyph unicode="&#xe930;" d="M679.724 606.897c-73.092 0-132.414-52.966-132.414-194.207s59.321-194.207 132.414-194.207 132.414 52.966 132.414 194.207-59.321 194.207-132.414 194.207zM679.724 289.103c-40.96 0-61.793 41.666-61.793 123.586s20.833 123.586 61.793 123.586 61.793-41.666 61.793-123.586-20.833-123.586-61.793-123.586z" />
<glyph unicode="&#xe931;" d="M246.837 262.356l152.17 273.92h-151.834c-9.751 0-17.655 7.904-17.655 17.655v35.31c0 9.751 7.904 17.655 17.655 17.655h211.862c12.512 0.003 24.091-6.615 30.438-17.397s6.515-24.118 0.44-35.057l-181.319-326.356c-4.732-8.518-15.471-11.592-23.993-6.868l-30.879 17.108c-4.103 2.27-7.135 6.078-8.427 10.586s-0.737 9.344 1.542 13.443z" />
<glyph unicode="&#xe932;" d="M899.001 747.785l-16.419-670.543c-1.345-18.438-16.647-32.74-35.134-32.839h-670.897c-18.487 0.098-33.789 14.4-35.134 32.839l-16.419 670.72c47.139-0.883 47.669-52.789 95.691-52.789 48.552 0 48.552 52.966 97.103 52.966s48.375-52.966 96.927-52.966 48.552 52.966 97.103 52.966 48.552-52.966 97.103-52.966 48.552 52.966 97.103 52.966 48.552-52.966 97.28-52.966c47.846 0 48.552 51.73 95.691 52.612z" />
<glyph unicode="&#xe933;" d="M300.138 898.207c0-24.377-19.761-44.138-44.138-44.138s-44.138 19.761-44.138 44.138c0 24.377 19.761 44.138 44.138 44.138s44.138-19.761 44.138-44.138z" />
<glyph unicode="&#xe934;" d="M688.552 907.034c0-19.501-15.809-35.31-35.31-35.31s-35.31 15.809-35.31 35.31c0 19.501 15.809 35.31 35.31 35.31s35.31-15.809 35.31-35.31z" />
<glyph unicode="&#xe935;" d="M564.966 854.069c0-9.751-7.904-17.655-17.655-17.655s-17.655 7.904-17.655 17.655c0 9.751 7.904 17.655 17.655 17.655s17.655-7.904 17.655-17.655z" />
<glyph unicode="&#xe936;" d="M353.103 818.759c0-9.751-7.904-17.655-17.655-17.655s-17.655 7.904-17.655 17.655c0 9.751 7.904 17.655 17.655 17.655s17.655-7.904 17.655-17.655z" />
<glyph unicode="&#xe937;" d="M635.586 783.448c0-9.751-7.904-17.655-17.655-17.655s-17.655 7.904-17.655 17.655c0 9.751 7.904 17.655 17.655 17.655s17.655-7.904 17.655-17.655z" />
<glyph unicode="&#xe938;" d="M829.793 801.103c0-9.751-7.904-17.655-17.655-17.655s-17.655 7.904-17.655 17.655c0 9.751 7.904 17.655 17.655 17.655s17.655-7.904 17.655-17.655z" />
<glyph unicode="&#xe939;" d="M124.999 747.961l46.786-655.537c1.345-18.438 16.647-32.74 35.134-32.839h610.163c18.487 0.098 33.789 14.4 35.134 32.839l46.786 655.36 69.561-17.302-45.903-643.178c-4.129-55.313-50.111-98.143-105.578-98.339h-610.163c-55.466 0.196-101.449 43.026-105.578 98.339l-45.903 643.178z" />
<glyph unicode="&#xe93a;" d="M1016.055 38.93c3.585-3.019 5.822-7.338 6.22-12.008s-1.078-9.305-4.101-12.886l-45.374-54.025c-2.993-3.611-7.3-5.882-11.971-6.312s-9.32 1.015-12.923 4.017c-3.001 2.472-176.199 147.774-435.906 365.815-259.708-218.041-432.905-363.343-435.906-365.815-3.603-3.002-8.253-4.448-12.923-4.017s-8.977 2.702-11.971 6.312l-45.374 54.025c-3.023 3.581-4.498 8.217-4.101 12.886s2.635 8.989 6.22 12.008c36.017 30.19 419.31 351.868 421.606 353.81-35.134 29.484-418.957 351.514-421.606 353.81-3.585 3.019-5.822 7.338-6.22 12.008s1.078 9.305 4.101 12.886c29.484 35.134 19.068 22.952 45.374 54.025 3.019 3.585 7.338 5.822 12.008 6.22s9.305-1.078 12.886-4.101c197.208-165.606 93.572-78.566 435.906-365.815 342.334 287.25 238.698 200.21 435.906 365.815 3.581 3.023 8.217 4.498 12.886 4.101s8.989-2.635 12.008-6.22c26.306-31.073 15.89-18.891 45.374-54.025 3.023-3.581 4.498-8.217 4.101-12.886s-2.635-8.989-6.22-12.008c-2.648-2.295-386.648-324.502-421.606-353.81 2.295-1.942 385.589-323.619 421.606-353.81z" />
<glyph unicode="&#xe93b;" d="M763.661 604.203l-41.654 55.539c-6.555 8.741-16.844 13.885-27.769 13.885h-69.424c-10.926 0-21.214-5.144-27.769-13.885l-41.654-55.539 104.136-34.712z" />
<glyph unicode="&#xe93c;" d="M867.797 864.542l-104.136-34.712-104.136 34.712 26.034 64.963c5.266 13.16 18.004 21.796 32.178 21.816h91.848c14.174-0.020 26.912-8.657 32.178-21.816z" />
<glyph unicode="&#xe93d;" d="M1006.644 361.22c-9.585 0-17.356 7.771-17.356 17.356v312.407c-0.057 47.903-38.876 86.722-86.78 86.78-9.585 0-17.356 7.771-17.356 17.356s7.771 17.356 17.356 17.356c67.066-0.077 121.415-54.425 121.492-121.492v-312.407c0-9.585-7.771-17.356-17.356-17.356z" />
<glyph unicode="&#xe93e;" d="M867.797 864.542h-242.983s-503.843 0-590.102-400.054c2.86 0.555 5.765 0.846 8.678 0.868l390.508-34.712 381.831 34.712c0.068 37.971 24.71 71.529 60.919 82.961 15.045 4.051 25.592 17.571 25.86 33.15v248.363c-0.057 19.147-15.565 34.655-34.712 34.712zM815.729 638.915c-0.057-19.147-15.565-34.655-34.712-34.712h-295.051c-14.67 0.029-27.738 9.276-32.644 23.101s-0.593 29.242 10.776 38.512l106.045 86.78c6.23 5.062 14.015 7.82 22.042 7.81h188.833c19.147-0.057 34.655-15.565 34.712-34.712z" />
<glyph unicode="&#xe93f;" d="M902.508 421.966c0.037-11.519-4.522-22.577-12.668-30.722s-19.203-12.705-30.722-12.668h-815.729c-17.574-0.031-33.431 10.541-40.16 26.775s-3.002 34.924 9.44 47.335c5.966 6.005 13.574 10.111 21.868 11.802h0.174c2.86 0.555 5.765 0.846 8.678 0.868h815.729c23.964 0 43.39-19.426 43.39-43.39z" />
<glyph unicode="&#xe940;" d="M130.673 517.424c-5.928 0.028-11.431 3.079-14.595 8.092s-3.55 11.294-1.025 16.657c40.231 82.647 106.868 149.522 189.371 190.047 8.493 4.448 18.983 1.168 23.431-7.324s1.168-18.983-7.324-23.431c-75.786-37.044-137.056-98.301-174.115-174.080-2.869-6.094-9.006-9.978-15.742-9.962z" />
<glyph unicode="&#xe941;" d="M381.831 743.051c0-9.585-7.771-17.356-17.356-17.356s-17.356 7.771-17.356 17.356c0 9.585 7.771 17.356 17.356 17.356s17.356-7.771 17.356-17.356z" />
<glyph unicode="&#xe942;" d="M104.136 257.085c-42.526 0.061-80.816-25.743-96.724-65.182s-6.236-84.588 24.431-114.050c30.667-29.462 76.167-37.317 114.937-19.841 12.78-34.087 40.21-60.62 74.702-72.262s72.391-7.158 103.214 12.211c26.257-33.626 66.541-53.28 109.204-53.28s82.947 19.654 109.204 53.28c30.823-19.369 68.722-23.853 103.214-12.211s61.921 38.176 74.702 72.262c38.77-17.475 84.27-9.621 114.937 19.841s40.338 74.611 24.431 114.050-54.198 65.242-96.724 65.182z" />
<glyph unicode="&#xe943;" d="M104.136 135.593c-7.339-0.006-13.888 4.604-16.358 11.515s-0.326 14.628 5.354 19.274l190.915 156.203c7.431 5.889 18.213 4.725 24.215-2.614s5.004-18.138-2.243-24.253l-190.915-156.203c-3.091-2.54-6.968-3.926-10.969-3.922z" />
<glyph unicode="&#xe944;" d="M763.661 135.593c-4.001-0.004-7.878 1.383-10.969 3.922l-190.915 156.203c-7.247 6.114-8.245 16.913-2.243 24.253s16.785 8.504 24.215 2.614l190.915-156.203c5.68-4.647 7.824-12.364 5.354-19.274s-9.019-11.521-16.358-11.515z" />
<glyph unicode="&#xe945;" d="M433.898 66.169c-9.585 0-17.356 7.771-17.356 17.356v225.627c0 9.585 7.771 17.356 17.356 17.356s17.356-7.771 17.356-17.356v-225.627c0-9.585-7.771-17.356-17.356-17.356z" />
<glyph unicode="&#xe946;" d="M260.339 66.169c-6.251 0.007-12.015 3.376-15.090 8.818s-2.986 12.118 0.233 17.476l52.068 86.78c3.135 5.436 8.96 8.757 15.235 8.685s12.022-3.526 15.031-9.033c3.009-5.507 2.811-12.209-0.518-17.529l-52.068-86.78c-3.14-5.227-8.794-8.423-14.891-8.418z" />
<glyph unicode="&#xe947;" d="M607.458 66.169c-6.098-0.005-11.751 3.191-14.891 8.418l-52.068 86.78c-4.727 8.198-2.016 18.672 6.096 23.546s18.632 2.352 23.652-5.67l52.068-86.78c3.219-5.358 3.308-12.034 0.233-17.476s-8.839-8.811-15.090-8.818z" />
<glyph unicode="&#xe948;" d="M763.661 604.203l-41.654 55.539c-6.555 8.741-16.844 13.885-27.769 13.885h-69.424c-10.926 0-21.214-5.144-27.769-13.885l-41.654-55.539 104.136-34.712z" />
<glyph unicode="&#xe949;" d="M867.797 864.542l-104.136-34.712-104.136 34.712 26.034 64.963c5.266 13.16 18.004 21.796 32.178 21.816h91.848c14.174-0.020 26.912-8.657 32.178-21.816z" />
<glyph unicode="&#xe94a;" d="M1006.644 361.22c-9.585 0-17.356 7.771-17.356 17.356v312.407c-0.057 47.903-38.876 86.722-86.78 86.78-9.585 0-17.356 7.771-17.356 17.356s7.771 17.356 17.356 17.356c67.066-0.077 121.415-54.425 121.492-121.492v-312.407c0-9.585-7.771-17.356-17.356-17.356z" />
<glyph unicode="&#xe94b;" d="M867.797 864.542h-242.983s-503.843 0-590.102-400.054c2.86 0.555 5.765 0.846 8.678 0.868l390.508-34.712 381.831 34.712c0.068 37.971 24.71 71.529 60.919 82.961 15.045 4.051 25.592 17.571 25.86 33.15v248.363c-0.057 19.147-15.565 34.655-34.712 34.712zM815.729 638.915c-0.057-19.147-15.565-34.655-34.712-34.712h-295.051c-14.67 0.029-27.738 9.276-32.644 23.101s-0.593 29.242 10.776 38.512l106.045 86.78c6.23 5.062 14.015 7.82 22.042 7.81h188.833c19.147-0.057 34.655-15.565 34.712-34.712z" />
<glyph unicode="&#xe94c;" d="M902.508 421.966c0.037-11.519-4.522-22.577-12.668-30.722s-19.203-12.705-30.722-12.668h-815.729c-17.574-0.031-33.431 10.541-40.16 26.775s-3.002 34.924 9.44 47.335c5.966 6.005 13.574 10.111 21.868 11.802h0.174c2.86 0.555 5.765 0.846 8.678 0.868h815.729c23.964 0 43.39-19.426 43.39-43.39z" />
<glyph unicode="&#xe94d;" d="M130.673 517.424c-5.928 0.028-11.431 3.079-14.595 8.092s-3.55 11.294-1.025 16.657c40.231 82.647 106.868 149.522 189.371 190.047 8.493 4.448 18.983 1.168 23.431-7.324s1.168-18.983-7.324-23.431c-75.786-37.044-137.056-98.301-174.115-174.080-2.869-6.094-9.006-9.978-15.742-9.962z" />
<glyph unicode="&#xe94e;" d="M381.831 743.051c0-9.585-7.771-17.356-17.356-17.356s-17.356 7.771-17.356 17.356c0 9.585 7.771 17.356 17.356 17.356s17.356-7.771 17.356-17.356z" />
<glyph unicode="&#xe94f;" d="M503.148 213.695l231.667 208.497c9.22 8.297 13.314 20.882 10.74 33.015s-11.427 21.971-23.222 25.808-24.741 1.090-33.962-7.207l-237.117-213.409-237.117 213.478c-14.254 12.825-36.205 11.667-49.031-2.586s-11.667-36.205 2.586-49.031l231.667-208.566-231.667-208.497c-14.254-12.825-15.411-34.777-2.586-49.031s34.777-15.411 49.031-2.586l237.117 213.409 237.117-213.478c14.254-12.825 36.205-11.667 49.031 2.586s11.667 36.205-2.586 49.031z" />
<glyph unicode="&#xe950;" d="M563.2 94.897h425.49c19.477 0.058 35.252 15.833 35.31 35.31v794.483c-0.058 19.477-15.833 35.252-35.31 35.31h-582.621c-19.477-0.058-35.252-15.833-35.31-35.31v-529.655z" />
<glyph unicode="&#xe951;" d="M635.586 960v-176.552h-264.828v141.241c0.058 19.477 15.833 35.252 35.31 35.31z" />
<glyph unicode="&#xe952;" d="M1024 783.448v-582.621h-440.143l18.008 92.337 14.124 72.916 1.589 7.945c1.006 5.199-0.374 10.575-3.761 14.646s-8.422 6.407-13.718 6.363h-229.341v388.414z" />
<glyph unicode="&#xe953;" d="M564.966 854.069h-123.586c-9.751 0-17.655 7.904-17.655 17.655s7.904 17.655 17.655 17.655h123.586c9.751 0 17.655-7.904 17.655-17.655s-7.904-17.655-17.655-17.655z" />
<glyph unicode="&#xe954;" d="M882.759 871.724c0-9.751-7.904-17.655-17.655-17.655s-17.655 7.904-17.655 17.655c0 9.751 7.904 17.655 17.655 17.655s17.655-7.904 17.655-17.655z" />
<glyph unicode="&#xe955;" d="M953.379 871.724c0-9.751-7.904-17.655-17.655-17.655s-17.655 7.904-17.655 17.655c0 9.751 7.904 17.655 17.655 17.655s17.655-7.904 17.655-17.655z" />
<glyph unicode="&#xe956;" d="M601.865 293.164c96.973-46.423 213.292-16.069 275.215 71.82s51.362 207.638-24.988 283.332-196.186 85.222-283.538 22.542c-87.351-62.679-116.701-179.256-69.443-275.825z" />
<glyph unicode="&#xe957;" d="M847.448 492.138c-26.509 16.604-57.005 25.752-88.276 26.483-67.443 0-70.444-48.375-209.567-52.612-1.567 8.621-2.336 17.368-2.295 26.13 0 82.881 67.188 150.069 150.069 150.069s150.069-67.188 150.069-150.069z" />
<glyph unicode="&#xe958;" d="M847.448 492.138c-0.008-54.943-30.041-105.49-78.293-131.768s-107.006-24.088-153.167 5.71l-33.015 28.954c-17.207 20.288-28.722 44.78-33.368 70.974 139.123 4.237 142.124 52.612 209.567 52.612 31.271-0.73 61.767-9.879 88.276-26.483z" />
<glyph unicode="&#xe959;" d="M600.099 395.034h-582.268c-5.295 0.044-10.331-2.292-13.718-6.363s-4.767-9.447-3.761-14.646l37.959-194.737 36.193-186.086c6.641-33.398 36.040-57.391 70.091-57.203h328.739c34.051-0.188 63.45 23.805 70.091 57.203l19.774 101.694 4.767 24.717 15.89 81.214 18.008 92.337 14.124 72.916 1.589 7.945c1.006 5.199-0.374 10.575-3.761 14.646s-8.422 6.407-13.718 6.363z" />
<glyph unicode="&#xe95a;" d="M567.967 119.614l-4.767-24.717-19.774-101.694c-6.641-33.398-36.040-57.391-70.091-57.203h-328.739c-34.051-0.188-63.45 23.805-70.091 57.203l-36.193 186.086c66.737-14.83 79.272-66.737 167.548-66.737 103.106 0 103.106 70.621 206.036 70.621 82.979 0 99.222-45.727 156.072-63.559z" />
<glyph unicode="&#xe95b;" d="M141.241 306.759h-52.966c-9.751 0-17.655 7.904-17.655 17.655s7.904 17.655 17.655 17.655h52.966c9.751 0 17.655-7.904 17.655-17.655s-7.904-17.655-17.655-17.655z" />
<glyph unicode="&#xe95c;" d="M529.655 306.759h-317.793c-9.751 0-17.655 7.904-17.655 17.655s7.904 17.655 17.655 17.655h317.793c9.751 0 17.655-7.904 17.655-17.655s-7.904-17.655-17.655-17.655z" />
<glyph unicode="&#xe95d;" d="M953.909 669.219c0.043-9.173-1.388-18.293-4.237-27.012l-367.051-35.31-361.578 35.31c-12.163 27.134-12.246 58.153-0.229 85.352s35.007 48.024 63.258 57.302c-0.353 4.237-0.53 8.474-0.53 12.712-0.058 74.614 50.767 139.653 123.183 157.631s147.759-15.737 182.605-81.714c9.444 2.538 19.176 3.844 28.954 3.884 30.539-0.080 59.682-12.798 80.508-35.134 34.486 18.048 75.459 18.795 110.58 2.016s60.285-49.123 67.914-87.291c43.856-6.035 76.552-43.477 76.623-87.746z" />
<glyph unicode="&#xe95e;" d="M1021.352 593.832c-52.827-128.623-85.060-264.766-95.514-403.421-14.423-144.416-135.936-254.404-281.070-254.411h-148.303c-142.446 0.062-262.56 106.174-280.188 247.526l-22.775 182.201c-2.777 22.764-22.585 39.569-45.498 38.599s-41.23-19.39-42.072-42.307v-370.229c0.495-28.865-21.387-53.212-50.141-55.79-14.53-0.776-28.739 4.46-39.292 14.478s-16.519 23.937-16.498 38.487v371.288c0.002 85.389 51.42 162.377 130.295 195.090l10.77 4.414c15.744 6.578 25.245 22.772 23.305 39.724-0.205 1.581-0.323 3.173-0.353 4.767 0.116 20.984 17.15 37.94 38.135 37.959h786.538c11.682-0.047 22.585-5.869 29.122-15.551s7.862-21.971 3.54-32.824z" />
<glyph unicode="&#xe95f;" d="M617.931-11.034c-9.751 0-17.655 7.904-17.655 17.655v564.966c0 9.751 7.904 17.655 17.655 17.655s17.655-7.904 17.655-17.655v-564.966c0-9.751-7.904-17.655-17.655-17.655z" />
<glyph unicode="&#xe960;" d="M547.31 6.621h-88.276c-9.751 0-17.655 7.904-17.655 17.655s7.904 17.655 17.655 17.655h88.276c9.751 0 17.655-7.904 17.655-17.655s-7.904-17.655-17.655-17.655z" />
<glyph unicode="&#xe961;" d="M547.31 94.897h-88.276c-9.751 0-17.655 7.904-17.655 17.655s7.904 17.655 17.655 17.655h88.276c9.751 0 17.655-7.904 17.655-17.655s-7.904-17.655-17.655-17.655z" />
<glyph unicode="&#xe962;" d="M547.31 183.172h-88.276c-9.751 0-17.655 7.904-17.655 17.655s7.904 17.655 17.655 17.655h88.276c9.751 0 17.655-7.904 17.655-17.655s-7.904-17.655-17.655-17.655z" />
<glyph unicode="&#xe963;" d="M547.31 271.448h-88.276c-9.751 0-17.655 7.904-17.655 17.655s7.904 17.655 17.655 17.655h88.276c9.751 0 17.655-7.904 17.655-17.655s-7.904-17.655-17.655-17.655z" />
<glyph unicode="&#xe964;" d="M547.31 359.724h-88.276c-9.751 0-17.655 7.904-17.655 17.655s7.904 17.655 17.655 17.655h88.276c9.751 0 17.655-7.904 17.655-17.655s-7.904-17.655-17.655-17.655z" />
<glyph unicode="&#xe965;" d="M547.31 448h-88.276c-9.751 0-17.655 7.904-17.655 17.655s7.904 17.655 17.655 17.655h88.276c9.751 0 17.655-7.904 17.655-17.655s-7.904-17.655-17.655-17.655z" />
<glyph unicode="&#xe966;" d="M547.31 536.276h-88.276c-9.751 0-17.655 7.904-17.655 17.655s7.904 17.655 17.655 17.655h88.276c9.751 0 17.655-7.904 17.655-17.655s-7.904-17.655-17.655-17.655z" />
<glyph unicode="&#xe967;" d="M354.163 779.917c-9.751 0-17.655 7.904-17.655 17.655 0.117 60.475 49.164 109.443 109.639 109.462 9.751 0 17.655-7.904 17.655-17.655s-7.904-17.655-17.655-17.655c-40.986 0.010-74.241-33.166-74.328-74.152 0-9.751-7.904-17.655-17.655-17.655z" />
<glyph unicode="&#xe968;" d="M847.448 626.494v218.748c-0.058 19.477-15.833 35.252-35.31 35.31h-582.621c-19.477-0.058-35.252-15.833-35.31-35.31v-794.483c0.058-19.477 15.833-35.252 35.31-35.31h582.621c19.477 0.058 35.252 15.833 35.31 35.31z" />
<glyph unicode="&#xe969;" d="M847.448 845.241v-141.241h-388.414v176.552h353.103c19.477-0.058 35.252-15.833 35.31-35.31z" />
<glyph unicode="&#xe96a;" d="M459.034 880.552v-176.552h-264.828v141.241c0.058 19.477 15.833 35.252 35.31 35.31z" />
<glyph unicode="&#xe96b;" d="M847.448 121.379v-70.621c-0.058-19.477-15.833-35.252-35.31-35.31h-582.621c-19.477 0.058-35.252 15.833-35.31 35.31v70.621z" />
<glyph unicode="&#xe96c;" d="M388.414 774.621h-123.586c-9.751 0-17.655 7.904-17.655 17.655s7.904 17.655 17.655 17.655h123.586c9.751 0 17.655-7.904 17.655-17.655s-7.904-17.655-17.655-17.655z" />
<glyph unicode="&#xe96d;" d="M706.207 792.276c0-9.751-7.904-17.655-17.655-17.655s-17.655 7.904-17.655 17.655c0 9.751 7.904 17.655 17.655 17.655s17.655-7.904 17.655-17.655z" />
<glyph unicode="&#xe96e;" d="M776.828 792.276c0-9.751-7.904-17.655-17.655-17.655s-17.655 7.904-17.655 17.655c0 9.751 7.904 17.655 17.655 17.655s17.655-7.904 17.655-17.655z" />
<glyph unicode="&#xe96f;" d="M882.759 633.379c-12.097-0.066-24.075-2.401-35.31-6.886-60.91-24.541-105.931-111.051-105.931-213.804s45.021-189.263 105.931-213.804c11.236-4.484 23.213-6.82 35.31-6.886 78.036 0 141.241 98.869 141.241 220.69s-63.206 220.69-141.241 220.69zM882.759 262.621c-28.072 0-70.621 59.851-70.621 150.069s42.549 150.069 70.621 150.069 70.621-59.851 70.621-150.069-42.549-150.069-70.621-150.069z" />
<glyph unicode="&#xe970;" d="M953.379 412.69c0-82.881-31.618-150.069-70.621-150.069s-70.621 67.188-70.621 150.069c0 82.881 31.618 150.069 70.621 150.069s70.621-67.188 70.621-150.069z" />
<glyph unicode="&#xe971;" d="M953.379 412.69c0-82.881-31.618-150.069-70.621-150.069s-70.621 67.188-70.621 150.069c0 82.881 31.618 150.069 70.621 150.069s70.621-67.188 70.621-150.069z" />
<glyph unicode="&#xe972;" d="M741.517 412.69c-0.046-90.682-55.559-172.107-139.956-205.281s-180.496-11.344-242.279 55.035l59.145 40.783c44.63-41.79 110.149-52.326 165.631-26.635s89.829 82.472 86.83 143.539c-2.999 61.067-42.746 114.209-100.477 134.34s-121.904 3.225-162.224-42.736l-58.439 40.077c58.857 72.525 157.019 100.107 245.036 68.85s146.799-114.571 146.732-207.973z" />
<glyph unicode="&#xe973;" d="M670.897 412.69c0.066-59.792-35.409-113.904-90.267-137.688s-118.604-12.691-162.202 28.226l125.352 86.157c4.806 3.251 7.685 8.675 7.685 14.477s-2.879 11.226-7.685 14.477l-135.592 93.396c41.243 46.849 107.178 63.279 165.581 41.26s97.080-77.889 97.128-140.305z" />
<glyph unicode="&#xe974;" d="M543.779 389.385l-233.578-160.662c-5.394-3.742-12.418-4.182-18.237-1.143s-9.471 9.056-9.482 15.62v72.739c-29.719 0.524-59.303 4.133-88.276 10.77-147.244 35.487-185.556 170.726-194.207 243.818-0.395 3.904 1.835 7.6 5.473 9.071s7.81 0.365 10.24-2.716c37.429-47.669 126.764-91.63 178.494-98.516 29.263-3.8 58.776-5.334 88.276-4.59v90.748c0.011 6.565 3.663 12.581 9.482 15.62s12.843 2.599 18.237-1.143l39.548-27.189 58.439-40.077 135.592-93.396c4.806-3.251 7.685-8.675 7.685-14.477s-2.879-11.226-7.685-14.477z" />
<glyph unicode="&#xe975;" d="M777.004 417.457l241.876 243.818c6.845 6.886 6.845 18.008 0 24.894l-16.243 16.243c-6.641 6.664-15.662 10.412-25.070 10.417h-200.739v198.444c-0.023 8.634-3.157 16.971-8.828 23.481l-17.832 20.127c-6.886 6.845-18.008 6.845-24.894 0l-719.978-714.152c-5.754-5.758-6.826-14.703-2.595-21.658s12.669-10.114 20.427-7.65l304.728 52.612-52.436-304.905c-2.464-7.758 0.696-16.196 7.65-20.427s15.9-3.159 21.658 2.595l419.134 422.488zM529.655 554.284c-0.023 7.146 0.867 14.266 2.648 21.186 7.729 30.873 31.502 55.182 62.195 63.596s63.54-0.373 85.932-22.989c16.493-16.334 25.773-38.581 25.777-61.793v-0.353c-0.021-39.761-26.621-74.601-64.971-85.098h-0.353l-94.808 33.898c-10.729 14.912-16.475 32.83-16.419 51.2z" />
<glyph unicode="&#xe976;" d="M723.862 363.785l-419.134-422.488c-5.758-5.754-14.703-6.826-21.658-2.595s-10.114 12.669-7.65 20.427l52.436 304.905 49.611 49.434c0.177 0 0.177 0 0.177-0.177 36.404-36.331 91.502-46.319 138.343-25.078s75.629 69.271 72.284 120.593l135.415-45.021z" />
<glyph unicode="&#xe977;" d="M1018.88 661.274l-241.876-243.818c-3.845 3.278-8.279 5.794-13.065 7.415 0 0-60.204 21.539-123.41 43.961h0.706c38.35 10.497 64.95 45.337 64.971 85.098v0.353c-0.004 23.212-9.284 45.46-25.777 61.793l96.75 96.75h200.386c9.409-0.004 18.429-3.752 25.070-10.417l16.243-16.243c6.845-6.886 6.845-18.008 0-24.894z" />
<glyph unicode="&#xe978;" d="M777.004 417.457c-3.845 3.278-8.279 5.794-13.065 7.415 0 0-141.418 50.494-217.865 77.859-27.895 9.887-47.139 16.772-47.669 16.949-54.073 15.169-111.575-8.028-139.986-56.472s-20.587-109.953 19.048-149.741c0.177 0 0.177 0 0.177-0.177 36.404-36.331 91.502-46.319 138.343-25.078s75.629 69.271 72.284 120.593l155.542-51.73c9.866-3.175 20.628-1.876 29.455 3.556s14.837 14.453 16.448 24.692c1.698 12.2-3.127 24.396-12.712 32.132z" />
<glyph unicode="&#xe979;" d="M502.466 363.255c-20.679-20.653-54.179-20.653-74.858 0l-0.177 0.177c-20.72 20.671-20.76 54.226-0.088 74.946s54.226 20.76 74.946 0.088c0.177-0.177 0.177-0.177 0.177-0.353l0.177-0.177c20.487-20.707 20.408-54.071-0.177-74.681z" />
<glyph unicode="&#xe97a;" d="M194.207 836.414h-176.552c-9.751 0-17.655 7.904-17.655 17.655v35.31c0 9.751 7.904 17.655 17.655 17.655h988.69c9.751 0 17.655-7.904 17.655-17.655v-35.31c0-9.751-7.904-17.655-17.655-17.655z" />
<glyph unicode="&#xe97b;" d="M1016.055 415.338c-18.714-22.775-99.752-51.377-186.262-67.443-11.652-2.119-23.481-4.061-35.31-5.826v-335.448c0-39.018-93.219-70.621-273.655-70.621s-291.31 31.603-291.31 70.621v333.33c-12.006 1.236-23.834 2.825-35.31 4.767-94.102 14.654-166.312 46.433-186.262 70.621-9.497 11.483-10.633 27.738-2.825 40.43l142.83 235.167c4.206 7.041 10.775 12.359 18.538 15.007l27.719 9.887 137.71 48.905c4.649 1.814 9.845 1.608 14.335-0.571s7.869-6.13 9.322-10.905c13.418-49.434 77.506-86.863 156.425-86.863s143.007 37.429 156.425 86.863c1.453 4.775 4.832 8.727 9.322 10.905s9.686 2.385 14.335 0.571l49.434-17.655 115.994-41.137c7.762-2.647 14.332-7.966 18.538-15.007l142.83-235.167c7.808-12.693 6.672-28.947-2.825-40.43z" />
<glyph unicode="&#xe97c;" d="M229.517 960h35.31c19.501 0 35.31-15.809 35.31-35.31v-211.862c0-19.501-15.809-35.31-35.31-35.31h-35.31c-19.501 0-35.31 15.809-35.31 35.31v211.862c0 19.501 15.809 35.31 35.31 35.31z" />
<glyph unicode="&#xe97d;" d="M847.448 924.69v-211.862c0.029-1.062-0.030-2.125-0.177-3.178-1.643-18.183-16.877-32.115-35.134-32.132h-35.31c-19.477 0.058-35.252 15.833-35.31 35.31v211.862c0.058 19.477 15.833 35.252 35.31 35.31h35.31c19.477-0.058 35.252-15.833 35.31-35.31z" />
<glyph unicode="&#xe97e;" d="M688.552 112.552c0-29.252-23.713-52.966-52.966-52.966s-52.966 23.713-52.966 52.966c0 19.015 22.387 63.276 38.047 88.276 3.236 5.114 8.867 8.214 14.919 8.214s11.682-3.1 14.919-8.214c15.66-25 38.047-69.261 38.047-88.276z" />
<glyph unicode="&#xe97f;" d="M459.034 306.759c0-29.252-23.713-52.966-52.966-52.966s-52.966 23.713-52.966 52.966c0 19.015 22.387 63.276 38.047 88.276 3.236 5.114 8.867 8.214 14.919 8.214s11.682-3.1 14.919-8.214c15.66-25 38.047-69.261 38.047-88.276z" />
<glyph unicode="&#xe980;" d="M229.517 448v-108.050c-12.006 1.236-23.834 2.825-35.31 4.767v103.283c0 9.751 7.904 17.655 17.655 17.655s17.655-7.904 17.655-17.655z" />
<glyph unicode="&#xe981;" d="M829.793 448v-100.105c-11.652-2.119-23.481-4.061-35.31-5.826v105.931c0 9.751 7.904 17.655 17.655 17.655s17.655-7.904 17.655-17.655z" />
<glyph unicode="&#xe982;" d="M783.89 749.727l73.622-26.13c7.762-2.647 14.332-7.966 18.538-15.007l142.83-235.167c7.808-12.693 6.672-28.947-2.825-40.43-18.714-22.775-99.752-51.377-186.262-67.443-11.652-2.119-23.481-4.061-35.31-5.826v-335.448c0-39.018-93.219-70.621-273.655-70.621s-291.31 31.603-291.31 70.621v333.33c-12.006 1.236-23.834 2.825-35.31 4.767-94.102 14.654-166.312 46.433-186.262 70.621-9.497 11.483-10.633 27.738-2.825 40.43l142.83 235.167c4.206 7.041 10.775 12.359 18.538 15.007l165.429 58.792c4.649 1.814 9.845 1.608 14.335-0.571s7.869-6.13 9.322-10.905c13.418-49.434 77.506-86.863 156.425-86.863s143.007 37.429 156.425 86.863c0.439 1.835 1.217 3.572 2.295 5.12z" />
<glyph unicode="&#xe983;" d="M653.241 253.793c-9.751 0-17.655 7.904-17.655 17.655v35.31c0 9.751 7.904 17.655 17.655 17.655s17.655-7.904 17.655-17.655v-35.31c0-9.751-7.904-17.655-17.655-17.655z" />
<glyph unicode="&#xe984;" d="M653.241 147.862c-9.751 0-17.655 7.904-17.655 17.655v35.31c0 9.751 7.904 17.655 17.655 17.655s17.655-7.904 17.655-17.655v-35.31c0-9.751-7.904-17.655-17.655-17.655z" />
<glyph unicode="&#xe985;" d="M723.862 218.483h-35.31c-9.751 0-17.655 7.904-17.655 17.655s7.904 17.655 17.655 17.655h35.31c9.751 0 17.655-7.904 17.655-17.655s-7.904-17.655-17.655-17.655z" />
<glyph unicode="&#xe986;" d="M617.931 218.483h-35.31c-9.751 0-17.655 7.904-17.655 17.655s7.904 17.655 17.655 17.655h35.31c9.751 0 17.655-7.904 17.655-17.655s-7.904-17.655-17.655-17.655z" />
<glyph unicode="&#xe987;" d="M229.517 465.655v-108.050c-12.006 1.236-23.834 2.825-35.31 4.767v103.283c0 9.751 7.904 17.655 17.655 17.655s17.655-7.904 17.655-17.655z" />
<glyph unicode="&#xe988;" d="M829.793 465.655v-100.105c-11.652-2.119-23.481-4.061-35.31-5.826v105.931c0 9.751 7.904 17.655 17.655 17.655s17.655-7.904 17.655-17.655z" />
<glyph unicode="&#xe989;" d="M845.859 792.806c-24.427-7.986-45.973-22.965-61.97-43.079-15.179-19.376-26.343-41.583-32.839-65.324-0.967-4.502-4.929-7.73-9.534-7.768-2.234 0.046-4.392 0.821-6.144 2.207-1.818 1.412-3.030 3.464-3.39 5.738-9.182 36.674-30.842 69.008-61.263 91.454-10.329 7.154-21.624 12.801-33.545 16.772-3.568 1.118-6.011 4.406-6.051 8.146s2.331 7.079 5.875 8.274c47.932 17.88 83.637 58.696 94.985 108.579 0.814 3.528 3.455 6.351 6.921 7.398 0.849 0.247 1.729 0.371 2.613 0.371 3.558-0.076 6.812-2.022 8.563-5.12 0.394-0.855 0.719-1.741 0.971-2.648 11.294-49.871 47.030-90.655 94.985-108.403 3.478-1.304 5.768-4.646 5.729-8.36s-2.4-7.007-5.905-8.236z" />
<glyph unicode="&#xe98a;" d="M573.44 571.586c0-4.68-3.794-8.474-8.474-8.474s-8.474 3.794-8.474 8.474c-0.012 0.967 0.168 1.927 0.53 2.825 0 0.177 0.177 0.53 0.177 0.706 1.413 3.013 4.441 4.937 7.768 4.937s6.355-1.924 7.768-4.937c0-0.177 0.177-0.53 0.177-0.706 0.361-0.897 0.541-1.857 0.53-2.825z" />
<glyph unicode="&#xe98b;" d="M641.766 475.189c-34.722-15.295-60.227-46.032-68.855-82.979 0-0.177-0.177-0.53-0.177-0.706-1.413-3.013-4.441-4.937-7.768-4.937s-6.355 1.924-7.768 4.937c0 0.177-0.177 0.53-0.177 0.706-8.628 36.947-34.133 67.684-68.855 82.979-3.423 1.234-5.704 4.483-5.704 8.121s2.282 6.887 5.704 8.121c34.722 15.295 60.227 46.032 68.855 82.979 0 0.177 0.177 0.53 0.177 0.706 1.413 3.013 4.441 4.937 7.768 4.937s6.355-1.924 7.768-4.937c0-0.177 0.177-0.53 0.177-0.706 8.628-36.947 34.133-67.684 68.855-82.979 3.423-1.234 5.704-4.483 5.704-8.121s-2.282-6.887-5.704-8.121z" />
<glyph unicode="&#xe98c;" d="M1016.055 512.265c-19.95-24.188-92.16-55.967-186.262-70.621-5.65-1.059-11.652-1.942-17.655-2.648l-17.655-2.119v-333.33c0-38.312-107.343-69.561-282.483-70.444-175.139 0.883-282.483 32.132-282.483 70.444v333.33l-17.655 2.119c-6.003 0.706-12.006 1.589-17.655 2.648-94.102 14.654-166.312 46.433-186.262 70.621-9.497 11.483-10.633 27.738-2.825 40.43l142.83 235.167c4.206 7.041 10.775 12.359 18.538 15.007l165.429 58.792c4.649 1.814 9.845 1.608 14.335-0.571s7.869-6.13 9.322-10.905c13.418-49.434 77.506-86.863 156.425-86.863 35.811-0.576 71.177 7.992 102.753 24.894 25.43 12.684 44.748 34.99 53.672 61.97 1.453 4.775 4.832 8.727 9.322 10.905s9.686 2.385 14.335 0.571l165.429-58.792c7.762-2.647 14.332-7.966 18.538-15.007l142.83-235.167c7.808-12.693 6.672-28.947-2.825-40.43z" />
<glyph unicode="&#xe98d;" d="M582.091 192.124c-19.297 1.766-29.572 20.303-45.603 28.884-24.911 13.312-47.969-10.593-68.696-20.657-12.818-6.983-27.629-9.399-42.002-6.85-16.748 4.732-28.373 19.938-28.548 37.341-0.159 19.015 23.552 33.386 35.028 45.78 10.858 11.723 17.302 29.625 2.825 41.578-14.883 12.359-36.882 6.532-52.383 17.655-20.515 14.583-10.364 41.066 0 58.386 22.952 38.4 48.675 75.335 72.563 113.205 7.319 14.555 18.807 26.602 32.998 34.604 13.701 5.884 29.569 3.309 40.706-6.606s15.531-25.378 11.271-39.668c-2.895-8.951-9.94-19.421-4.785-28.902 4.469-6.239 11.875-9.688 19.527-9.092 17.993 1.773 35.493 6.911 51.588 15.148 26.359 9.993 64.247 7.998 67.743-27.26 0.734-11.844-3.988-23.374-12.818-31.303-11.211-11.494-36.158-30.879-16.684-47.351 7.318-5.084 15.147-9.391 23.358-12.853 42.090-22.581 9.145-65.483-10.152-92.019-11.405-15.69-23.299-30.991-35.681-45.903-10.717-12.924-20.727-25.088-39.265-24.117z" />
<glyph unicode="&#xe98e;" d="M299.644 562.617c0.507-2.66 1.362-5.242 2.542-7.68 9.481-19.297 36.37-17.39 53.089-10.222 19.018 8.613 36.248 20.723 50.794 35.699 21.496 20.46 26.566 52.81 12.359 78.866-7.862 15.803-23.495 26.272-41.101 27.524-18.503-1.377-30.579-18.856-40.43-32.591-12.766-16.708-23.339-34.983-31.462-54.378-5.2-11.672-7.199-24.517-5.791-37.217z" />
<glyph unicode="&#xe98f;" d="M829.793 544.927v-103.283c-5.65-1.059-11.652-1.942-17.655-2.648l-17.655-2.119v108.050c0 9.751 7.904 17.655 17.655 17.655s17.655-7.904 17.655-17.655z" />
<glyph unicode="&#xe990;" d="M229.517 544.927v-108.050l-17.655 2.119c-6.003 0.706-12.006 1.589-17.655 2.648v103.283c0 9.751 7.904 17.655 17.655 17.655s17.655-7.904 17.655-17.655z" />
<glyph unicode="&#xe991;" d="M921.935 115.377c-6.004 0.005-11.594 3.061-14.84 8.113s-3.701 11.406-1.209 16.869c24.239 53.216 39.482 110.084 45.109 168.289l-0.088 103.865c-5.779 57.617-20.988 113.893-45.021 166.577l-52.012 89.953c-33.862 46.994-75.172 88.142-122.297 121.821l-90.041 51.853c-52.795 23.807-109.14 38.784-166.788 44.332h-103.865c-57.616-5.784-113.891-20.994-166.577-45.021-8.873-4.047-19.347-0.134-23.393 8.739s-0.134 19.347 8.739 23.393c56.787 25.809 117.461 42.018 179.553 47.969h107.308c62.67-5.822 123.925-22.083 181.23-48.11l92.954-53.495c51.307-36.476 96.197-81.224 132.838-132.414l53.707-92.902c26.274-57.186 42.798-118.363 48.887-181.001l0.088-107.308c-5.85-62.675-22.141-123.93-48.199-181.23-2.883-6.284-9.17-10.307-16.084-10.293z" />
<glyph unicode="&#xe992;" d="M476.69 907.034c0-29.252-23.713-52.966-52.966-52.966s-52.966 23.713-52.966 52.966c0 29.252 23.713 52.966 52.966 52.966s52.966-23.713 52.966-52.966z" />
<glyph unicode="&#xe993;" d="M203.034 833.713c0-29.252-23.713-52.966-52.966-52.966s-52.966 23.713-52.966 52.966c0 29.252 23.713 52.966 52.966 52.966s52.966-23.713 52.966-52.966z" />
<glyph unicode="&#xe994;" d="M1024 359.724c0-29.252-23.713-52.966-52.966-52.966s-52.966 23.713-52.966 52.966c0 29.252 23.713 52.966 52.966 52.966s52.966-23.713 52.966-52.966z" />
<glyph unicode="&#xe995;" d="M950.678 633.379c0-29.252-23.713-52.966-52.966-52.966s-52.966 23.713-52.966 52.966c0 29.252 23.713 52.966 52.966 52.966s52.966-23.713 52.966-52.966z" />
<glyph unicode="&#xe996;" d="M750.345 833.713c0-29.252-23.713-52.966-52.966-52.966s-52.966 23.713-52.966 52.966c0 29.252 23.713 52.966 52.966 52.966s52.966-23.713 52.966-52.966z" />
<glyph unicode="&#xe997;" d="M847.448 398.566v-77.683c-0.030-8.631-4.863-16.527-12.535-20.48h-0.177c-6.358-3.196-10.815-9.227-12.006-16.243-3.78-19.9-9.032-39.492-15.713-58.615-2.377-6.645-1.529-14.018 2.295-19.95l0.177-0.177c4.632-7.201 4.904-16.372 0.706-23.834l-39.018-67.443c-4.28-7.46-12.426-11.841-21.010-11.299h-0.177c-7.069 0.325-13.898-2.602-18.538-7.945-13.222-15.34-27.562-29.68-42.902-42.902-5.343-4.64-8.27-11.469-7.945-18.538v-0.177c0.542-8.584-3.839-16.73-11.299-21.010l-67.443-39.018c-7.462-4.198-16.634-3.926-23.834 0.706l-0.177 0.177c-5.932 3.824-13.305 4.673-19.95 2.295-19.123-6.681-38.715-11.933-58.615-15.713-7.016-1.191-13.046-5.648-16.243-12.006v-0.177c-3.953-7.672-11.849-12.505-20.48-12.535h-77.683c-8.631 0.030-16.527 4.863-20.48 12.535v0.177c-3.196 6.358-9.227 10.815-16.243 12.006-19.9 3.78-39.492 9.032-58.615 15.713-6.645 2.377-14.018 1.529-19.95-2.295l-0.177-0.177c-7.201-4.632-16.372-4.904-23.834-0.706l-67.443 39.018c-7.46 4.28-11.841 12.426-11.299 21.010v0.177c0.325 7.069-2.602 13.898-7.945 18.538-15.34 13.222-29.68 27.562-42.902 42.902-4.64 5.343-11.469 8.27-18.538 7.945h-0.177c-8.584-0.542-16.73 3.839-21.010 11.299l-39.018 67.443c-4.198 7.462-3.926 16.634 0.706 23.834l0.177 0.177c3.824 5.932 4.673 13.305 2.295 19.95-6.681 19.123-11.933 38.715-15.713 58.615-1.191 7.016-5.648 13.046-12.006 16.243h-0.177c-7.672 3.953-12.505 11.849-12.535 20.48v77.683c0.030 8.631 4.863 16.527 12.535 20.48h0.177c6.358 3.196 10.815 9.227 12.006 16.243 3.78 19.9 9.032 39.492 15.713 58.615 2.377 6.645 1.529 14.018-2.295 19.95l-0.177 0.177c-4.632 7.201-4.904 16.372-0.706 23.834l39.018 67.443c4.28 7.46 12.426 11.841 21.010 11.299h0.177c7.069-0.325 13.898 2.602 18.538 7.945 13.222 15.34 27.562 29.68 42.902 42.902 5.343 4.64 8.27 11.469 7.945 18.538v0.177c-0.542 8.584 3.839 16.73 11.299 21.010l67.443 39.018c7.462 4.198 16.634 3.926 23.834-0.706l0.177-0.177c5.932-3.824 13.305-4.673 19.95-2.295 19.123 6.681 38.715 11.933 58.615 15.713 7.016 1.191 13.046 5.648 16.243 12.006v0.177c1.601 3.178 3.967 5.909 6.886 7.945l15.183-121.468c-157.289-19.674-272.161-158.271-262.305-316.479s141.042-281.476 299.557-281.476 289.701 123.267 299.557 281.476c9.856 158.208-105.016 296.805-262.305 316.479l15.183 121.468c2.919-2.036 5.285-4.766 6.886-7.945v-0.177c3.196-6.358 9.227-10.815 16.243-12.006 19.9-3.78 39.492-9.032 58.615-15.713 6.645-2.377 14.018-1.529 19.95 2.295l0.177 0.177c7.201 4.632 16.372 4.904 23.834 0.706l67.443-39.018c7.46-4.28 11.841-12.426 11.299-21.010v-0.177c-0.325-7.069 2.602-13.898 7.945-18.538 15.34-13.222 29.68-27.562 42.902-42.902 4.64-5.343 11.469-8.27 18.538-7.945h0.177c8.584 0.542 16.73-3.839 21.010-11.299l39.018-67.443c4.198-7.462 3.926-16.634-0.706-23.834l-0.177-0.177c-3.824-5.932-4.673-13.305-2.295-19.95 6.681-19.123 11.933-38.715 15.713-58.615 1.191-7.016 5.648-13.046 12.006-16.243h0.177c7.672-3.953 12.505-11.849 12.535-20.48z" />
<glyph unicode="&#xe998;" d="M460.977 657.39c157.289-19.674 272.161-158.271 262.305-316.479s-141.042-281.476-299.557-281.476-289.701 123.267-299.557 281.476c-9.856 158.208 105.016 296.805 262.305 316.479z" />
<glyph unicode="&#xe999;" d="M924.195 131.972c-25.339 14.6-57.716 5.901-72.325-19.433s-5.922-57.714 19.406-72.333c25.328-14.619 57.712-5.943 72.34 19.38 7.032 12.173 8.936 26.641 5.293 40.218s-12.533 25.15-24.714 32.168z" />
<glyph unicode="&#xe99a;" d="M476.16 779.034v-0.177l-15.183-121.468-19.738-157.678c-1.122-8.818-8.625-15.426-17.514-15.426s-16.392 6.609-17.514 15.426l-19.738 157.678-15.183 121.468v0.177c3.953 2.868 8.711 4.412 13.594 4.414h77.683c4.883-0.001 9.642-1.546 13.594-4.414z" />
<glyph unicode="&#xe99b;" d="M815.316 651.034h78.566l-24.011-602.748c-1.345-18.438-16.647-32.74-35.134-32.839h-645.473c-18.487 0.098-33.789 14.4-35.134 32.839l-24.011 602.748z" />
<glyph unicode="&#xe99c;" d="M815.316 651.034c-27.527-46.556-61.198-89.194-100.105-126.764l-181.142-181.142c-17.226-17.172-45.097-17.172-62.323 0-1.844 1.831-3.501 3.842-4.943 6.003-10.427 14.516-10.848 33.951-1.059 48.905l0.353 0.353c1.571 2.641 3.469 5.073 5.65 7.239l-62.499-62.499c-17.226-17.172-45.097-17.172-62.323 0-1.844 1.831-3.501 3.842-4.943 6.003-10.18 14.597-10.598 33.88-1.059 48.905l0.177 0.177c1.631 2.701 3.587 5.192 5.826 7.415l-49.964-49.964c-17.314-17.125-45.185-17.125-62.499 0-1.794 1.876-3.446 3.882-4.943 6.003-0.186 0.195-0.309 0.441-0.353 0.706-4.958 7.222-7.606 15.78-7.592 24.541 0.029 8.592 2.543 16.992 7.239 24.188v0.177c0.782 1.249 1.668 2.43 2.648 3.531l1.412 1.589c0.485 0.627 1.016 1.217 1.589 1.766l49.964 49.964c-10.902-12.196-27.656-17.362-43.533-13.424s-28.275 16.336-32.213 32.213c-3.938 15.878 1.228 32.631 13.424 43.533l188.381 188.557c-38.356-4.848-77.113-5.677-115.641-2.472-17.34 1.353-32.819 11.385-41.137 26.659-4.024 7.62-6.144 16.1-6.179 24.717 0.001 2.481 0.178 4.959 0.53 7.415 2.952 20.741 18.167 37.631 38.488 42.726 79.849 22.434 158.364 49.372 235.167 80.684 14.301 5.65 28.248 11.829 42.372 18.185 33.368 14.654 135.945 46.963 238.521-55.614 64.794-64.794 50.67-142.124 12.712-210.273z" />
<glyph unicode="&#xe99d;" d="M1024 739.31c-0.058-19.477-15.833-35.252-35.31-35.31h-20.127l-45.903-643.178c-4.129-55.313-50.111-98.143-105.578-98.339h-610.163c-55.466 0.196-101.449 43.026-105.578 98.339l-45.903 643.178h-20.127c-19.501 0-35.31 15.809-35.31 35.31s15.809 35.31 35.31 35.31h52.966c18.548-0.023 33.943-14.341 35.31-32.839l6.532-90.748 41.666-585.092c1.345-18.438 16.647-32.74 35.134-32.839h610.163c18.487 0.098 33.789 14.4 35.134 32.839l41.666 585.092 6.532 90.748c1.367 18.498 16.762 32.815 35.31 32.839h52.966c19.477-0.058 35.252-15.833 35.31-35.31z" />
<glyph unicode="&#xe99e;" d="M512 209.655c0-9.751-7.904-17.655-17.655-17.655s-17.655 7.904-17.655 17.655c0 9.751 7.904 17.655 17.655 17.655s17.655-7.904 17.655-17.655z" />
<glyph unicode="&#xe99f;" d="M564.966 139.034c0-9.751-7.904-17.655-17.655-17.655s-17.655 7.904-17.655 17.655c0 9.751 7.904 17.655 17.655 17.655s17.655-7.904 17.655-17.655z" />
<glyph unicode="&#xe9a0;" d="M759.172 156.69c0-9.751-7.904-17.655-17.655-17.655s-17.655 7.904-17.655 17.655c0 9.751 7.904 17.655 17.655 17.655s17.655-7.904 17.655-17.655z" />
<glyph unicode="&#xe9a1;" d="M759.172 350.897c0-9.751-7.904-17.655-17.655-17.655s-17.655 7.904-17.655 17.655c0 9.751 7.904 17.655 17.655 17.655s17.655-7.904 17.655-17.655z" />
<glyph unicode="&#xe9a2;" d="M282.483 139.034c0-9.751-7.904-17.655-17.655-17.655s-17.655 7.904-17.655 17.655c0 9.751 7.904 17.655 17.655 17.655s17.655-7.904 17.655-17.655z" />
<glyph unicode="&#xe9a3;" d="M688.552 253.793c0-24.377-19.761-44.138-44.138-44.138s-44.138 19.761-44.138 44.138c0 24.377 19.761 44.138 44.138 44.138s44.138-19.761 44.138-44.138z" />
<glyph unicode="&#xe9a4;" d="M423.724 156.69c0-19.501-15.809-35.31-35.31-35.31s-35.31 15.809-35.31 35.31c0 19.501 15.809 35.31 35.31 35.31s35.31-15.809 35.31-35.31z" />
<glyph unicode="&#xe9a5;" d="M620.579 502.908l-153.777-153.777c-10.427 14.516-10.848 33.951-1.059 48.905l0.353 0.353 129.412 129.589c6.923 6.923 18.147 6.923 25.070 0s6.923-18.147 0-25.070z" />
<glyph unicode="&#xe9a6;" d="M558.080 565.23l-216.099-216.099c-10.18 14.597-10.598 33.88-1.059 48.905l192.088 192.265c4.478 4.478 11.006 6.227 17.123 4.588s10.896-6.418 12.535-12.535c1.639-6.118-0.11-12.645-4.588-17.123z" />
<glyph unicode="&#xe9a7;" d="M516.59 754.494c-34.213-16.989-70.467-29.509-107.873-37.252l1.766 1.766c-38.356-4.848-77.113-5.677-115.641-2.472-17.34 1.353-32.819 11.385-41.137 26.659 84.682-8.39 170.053 6.378 246.996 42.726 5.671 3.412 12.773 3.366 18.399-0.118s8.831-9.823 8.302-16.42c-0.529-6.597-4.702-12.344-10.812-14.888z" />
<glyph unicode="&#xe9a8;" d="M487.989 621.197l-49.788-49.964-209.037-208.861c-4.958 7.222-7.606 15.78-7.592 24.541 0.029 8.592 2.543 16.992 7.239 24.188v0.177c0.782 1.249 1.668 2.43 2.648 3.531l1.412 1.589 230.047 229.87c6.923 6.923 18.147 6.923 25.070 0s6.923-18.147 0-25.070z" />
<glyph unicode="&#xe9a9;" d="M953.379 960h-882.759c-39.003 0-70.621-31.618-70.621-70.621v-882.759c0-39.003 31.618-70.621 70.621-70.621h882.759c39.003 0 70.621 31.618 70.621 70.621v882.759c0 39.003-31.618 70.621-70.621 70.621z" />
<glyph unicode="&#xe9aa;" d="M512 642.207c-175.512 0-317.793-142.281-317.793-317.793s142.281-317.793 317.793-317.793 317.793 142.281 317.793 317.793-142.281 317.793-317.793 317.793zM707.972 204.888c-53.527-87.803-158.922-129.287-257.936-101.526s-167.478 117.993-167.554 220.826 68.255 193.165 167.228 221.073c98.973 27.908 204.429-13.421 258.085-101.145 2.643-4.259 3.384-9.43 2.042-14.26s-4.643-8.878-9.104-11.164l-37.782-18.714c-5.994-3.020-9.757-9.178-9.71-15.89v-119.349c-0.047-6.712 3.716-12.869 9.71-15.89l37.782-18.714c4.465-2.233 7.789-6.235 9.164-11.034s0.677-9.954-1.926-14.213z" />
<glyph unicode="&#xe9ab;" d="M700.734 230.135l-37.782 18.714c-5.994 3.020-9.757 9.178-9.71 15.89v119.349c-0.047 6.712 3.716 12.869 9.71 15.89l37.782 18.714c4.461 2.286 7.763 6.334 9.104 11.164s0.601 10.001-2.042 14.26c-53.656 87.724-159.112 129.053-258.085 101.145s-167.304-118.24-167.228-221.073 68.54-193.064 167.554-220.826 204.409 13.723 257.936 101.526c2.603 4.259 3.302 9.415 1.926 14.213s-4.7 8.801-9.164 11.034z" />
<glyph unicode="&#xe9ac;" d="M1024 889.379v-176.552h-617.931v247.172h547.31c39.003 0 70.621-31.618 70.621-70.621z" />
<glyph unicode="&#xe9ad;" d="M953.379 836.414c0-29.252-23.713-52.966-52.966-52.966s-52.966 23.713-52.966 52.966c0 29.252 23.713 52.966 52.966 52.966s52.966-23.713 52.966-52.966z" />
<glyph unicode="&#xe9ae;" d="M776.828 836.414c0-29.252-23.713-52.966-52.966-52.966s-52.966 23.713-52.966 52.966c0 29.252 23.713 52.966 52.966 52.966s52.966-23.713 52.966-52.966z" />
<glyph unicode="&#xe9af;" d="M529.655 836.414c0-9.751-7.904-17.655-17.655-17.655s-17.655 7.904-17.655 17.655c0 9.751 7.904 17.655 17.655 17.655s17.655-7.904 17.655-17.655z" />
<glyph unicode="&#xe9b0;" d="M600.276 836.414c0-9.751-7.904-17.655-17.655-17.655s-17.655 7.904-17.655 17.655c0 9.751 7.904 17.655 17.655 17.655s17.655-7.904 17.655-17.655z" />
<glyph unicode="&#xe9b1;" d="M70.621 589.241c-9.751 0-17.655 7.904-17.655 17.655v35.31c0 9.751 7.904 17.655 17.655 17.655s17.655-7.904 17.655-17.655v-35.31c0-9.751-7.904-17.655-17.655-17.655z" />
<glyph unicode="&#xe9b2;" d="M70.621 147.862c-9.751 0-17.655 7.904-17.655 17.655v370.759c0 9.751 7.904 17.655 17.655 17.655s17.655-7.904 17.655-17.655v-370.759c0-9.751-7.904-17.655-17.655-17.655z" />
<glyph unicode="&#xe9b3;" d="M707.972 204.888c-55.088-91.148-165.695-132.35-266.989-99.456s-166.592 131.22-157.617 237.343c38.665-20.833 60.381-53.672 128.53-53.672 100.105 0 100.105 70.621 200.033 70.621 13.916 0.148 27.796-1.454 41.313-4.767v-90.218c-0.047-6.712 3.716-12.869 9.71-15.89l37.782-18.714c4.465-2.233 7.789-6.235 9.164-11.034s0.677-9.954-1.926-14.213z" />
<glyph unicode="&#xe9b4;" d="M423.724 960v-247.172h-423.724v176.552c0 39.003 31.618 70.621 70.621 70.621z" />
<glyph unicode="&#xe9b5;" d="M123.586 871.724h176.552c19.501 0 35.31-15.809 35.31-35.31v-17.655c0-9.751-7.904-17.655-17.655-17.655h-211.862c-9.751 0-17.655 7.904-17.655 17.655v17.655c0 19.501 15.809 35.31 35.31 35.31z" />
<glyph unicode="&#xe9b6;" d="M759.172 24.276v-35.31c0-29.252-23.713-52.966-52.966-52.966h-564.966c-29.252 0-52.966 23.713-52.966 52.966v653.241c0 18.361 33.545 35.134 88.276 47.669z" />
<glyph unicode="&#xe9b7;" d="M847.448 112.552v-35.31c0-29.252-23.713-52.966-52.966-52.966h-564.966c-29.252 0-52.966 23.713-52.966 52.966v653.241c0 18.361 33.545 35.134 88.276 47.669z" />
<glyph unicode="&#xe9b8;" d="M768.177 879.846l-7.239 64.441c-0.14 1.534-0.559 3.030-1.236 4.414-2.575 6.827-9.123 11.333-16.419 11.299h-286.014c-6.763 0.056-12.952-3.794-15.89-9.887-0.956-1.811-1.555-3.789-1.766-5.826l-7.239-64.441c-100.105-12.182-167.548-34.957-167.548-61.087v-653.241c0-29.252 23.713-52.966 52.966-52.966h564.966c29.252 0 52.966 23.713 52.966 52.966v653.241c0 26.13-67.443 48.905-167.548 61.087z" />
<glyph unicode="&#xe9b9;" d="M935.724 818.759v-653.241c0-29.252-23.713-52.966-52.966-52.966h-353.103v573.617c23.017 6.221 46.779 9.25 70.621 9.004 89.688 0 128.177-37.076 169.313-49.258 5.679-1.547 11.756-0.193 16.24 3.62s6.797 9.593 6.182 15.447l-23.834 214.863c100.105-12.182 167.548-34.957 167.548-61.087z" />
<glyph unicode="&#xe9ba;" d="M792.011 664.982c0.615-5.854-1.698-11.634-6.182-15.447s-10.561-5.168-16.24-3.62c-41.137 12.182-79.625 49.258-169.313 49.258 124.999 0 154.306 202.858 159.426 253.528 0.677-1.384 1.096-2.88 1.236-4.414l7.239-64.441z" />
<glyph unicode="&#xe9bb;" d="M759.702 948.701c-5.12-50.67-34.428-253.528-159.426-253.528-91.63 0-131.708 108.932-148.657 186.968-4.602 20.145-8.021 40.542-10.24 61.087v6.886c2.937 6.092 9.126 9.943 15.89 9.887h286.014c7.296 0.034 13.845-4.472 16.419-11.299z" />
<glyph unicode="&#xe9bc;" d="M600.276 695.172c-23.841 0.246-47.604-2.783-70.621-9.004-43.255-11.652-70.444-31.956-98.692-40.254-5.679-1.547-11.756-0.193-16.24 3.62s-6.797 9.593-6.182 15.447l23.834 214.863 7.239 64.441c0.211 2.037 0.81 4.015 1.766 5.826v-6.886c2.219-20.545 5.638-40.942 10.24-61.087 16.949-78.036 57.026-186.968 148.657-186.968z" />
<glyph unicode="&#xe9bd;" d="M670.897 553.931c0-19.501-15.809-35.31-35.31-35.31s-35.31 15.809-35.31 35.31c0 19.501 15.809 35.31 35.31 35.31s35.31-15.809 35.31-35.31z" />
<glyph unicode="&#xe9be;" d="M670.897 395.034c0-19.501-15.809-35.31-35.31-35.31s-35.31 15.809-35.31 35.31c0 19.501 15.809 35.31 35.31 35.31s35.31-15.809 35.31-35.31z" />
<glyph unicode="&#xe9bf;" d="M670.897 236.138c0-19.501-15.809-35.31-35.31-35.31s-35.31 15.809-35.31 35.31c0 19.501 15.809 35.31 35.31 35.31s35.31-15.809 35.31-35.31z" />
<glyph unicode="&#xe9c0;" d="M1016.055 521.092c-19.95-24.188-92.16-55.967-186.262-70.621-11.476-1.942-23.305-3.531-35.31-4.767v-68.326c-39.018 0-70.621-23.658-70.621-52.966 2.391-24.716 12.808-47.97 29.661-66.207-6.401-4.459-11.96-10.018-16.419-16.419-18.237 16.852-41.491 27.27-66.207 29.661-29.308 0-52.966-31.603-52.966-70.621s23.658-70.621 52.966-70.621c24.716 2.391 47.97 12.808 66.207 29.661 4.459-6.401 10.018-11.96 16.419-16.419-16.852-18.237-27.27-41.491-29.661-66.207 0.013-4.137 0.669-8.246 1.942-12.182-70.004-16.713-141.845-24.485-213.804-23.128-175.139 0.883-282.483 32.132-282.483 70.444v333.33c-12.006 1.236-23.834 2.825-35.31 4.767-94.102 14.654-166.312 46.433-186.262 70.621-9.497 11.483-10.633 27.738-2.825 40.43l142.83 235.167c4.206 7.041 10.775 12.359 18.538 15.007l165.429 58.792c4.649 1.814 9.845 1.608 14.335-0.571s7.869-6.13 9.322-10.905c13.418-49.434 77.506-86.863 156.425-86.863 35.811-0.576 71.177 7.992 102.753 24.894 25.43 12.684 44.748 34.99 53.672 61.97 1.453 4.775 4.832 8.727 9.322 10.905s9.686 2.385 14.335 0.571l165.429-58.792c7.762-2.647 14.332-7.966 18.538-15.007l142.83-235.167c7.808-12.693 6.672-28.947-2.825-40.43z" />
<glyph unicode="&#xe9c1;" d="M723.862 200.828c0.032-14.701 4.662-29.023 13.241-40.96-18.237-16.852-41.491-27.27-66.207-29.661-29.308 0-52.966 31.603-52.966 70.621s23.658 70.621 52.966 70.621c24.716-2.391 47.97-12.808 66.207-29.661-8.58-11.937-13.21-26.259-13.241-40.96z" />
<glyph unicode="&#xe9c2;" d="M865.103 200.828c-0.032-14.701-4.662-29.023-13.241-40.96-4.459-6.401-10.018-11.96-16.419-16.419-24.452-17.657-57.468-17.657-81.92 0-6.401 4.459-11.96 10.018-16.419 16.419-17.657 24.452-17.657 57.468 0 81.92 4.459 6.401 10.018 11.96 16.419 16.419 24.452 17.657 57.468 17.657 81.92 0 6.401-4.459 11.96-10.018 16.419-16.419 8.58-11.937 13.21-26.259 13.241-40.96z" />
<glyph unicode="&#xe9c3;" d="M865.103 324.414c-2.391-24.716-12.808-47.97-29.661-66.207-24.452 17.657-57.468 17.657-81.92 0-16.852 18.237-27.27 41.491-29.661 66.207 0 29.308 31.603 52.966 70.621 52.966s70.621-23.658 70.621-52.966z" />
<glyph unicode="&#xe9c4;" d="M865.103 77.241c0-29.308-31.603-52.966-70.621-52.966-29.219-2.321-56.732 14.017-68.679 40.783-1.274 3.936-1.929 8.045-1.942 12.182 2.391 24.716 12.808 47.97 29.661 66.207 24.452-17.657 57.468-17.657 81.92 0 16.852-18.237 27.27-41.491 29.661-66.207z" />
<glyph unicode="&#xe9c5;" d="M971.034 200.828c0-39.018-23.658-70.621-52.966-70.621-24.716 2.391-47.97 12.808-66.207 29.661 17.657 24.452 17.657 57.468 0 81.92 18.237 16.852 41.491 27.27 66.207 29.661 29.308 0 52.966-31.603 52.966-70.621z" />
<glyph unicode="&#xe9c6;" d="M495.122 438.766c-21.037-0.128-41.394-7.463-57.679-20.78-16.596-16.614-12.094-47.81 9.993-69.914s53.301-26.589 69.914-9.993c13.299 16.292 20.614 36.649 20.727 57.679l61.422 61.422c21.043 0.143 41.401 7.496 57.679 20.833 16.596 16.614 12.094 47.81-9.993 69.914s-53.301 26.589-69.914 9.993c-13.299-16.292-20.614-36.649-20.727-57.679z" />
<glyph unicode="&#xe9c7;" d="M538.077 500.189c-0.128 21.037-7.463 41.394-20.78 57.679-16.614 16.596-47.81 12.094-69.914-9.993s-26.589-53.301-9.993-69.914c16.292-13.299 36.649-20.614 57.679-20.727l61.422-61.422c0.143-21.043 7.496-41.401 20.833-57.679 16.614-16.596 47.81-12.094 69.914 9.993s26.589 53.301 9.993 69.914c-16.292 13.299-36.649 20.614-57.679 20.727z" />
<glyph unicode="&#xe9c8;" d="M459.034 200.828c-9.751 0-17.655 7.904-17.655 17.655v35.31c0 9.751 7.904 17.655 17.655 17.655s17.655-7.904 17.655-17.655v-35.31c0-9.751-7.904-17.655-17.655-17.655z" />
<glyph unicode="&#xe9c9;" d="M459.034 94.897c-9.751 0-17.655 7.904-17.655 17.655v35.31c0 9.751 7.904 17.655 17.655 17.655s17.655-7.904 17.655-17.655v-35.31c0-9.751-7.904-17.655-17.655-17.655z" />
<glyph unicode="&#xe9ca;" d="M529.655 165.517h-35.31c-9.751 0-17.655 7.904-17.655 17.655s7.904 17.655 17.655 17.655h35.31c9.751 0 17.655-7.904 17.655-17.655s-7.904-17.655-17.655-17.655z" />
<glyph unicode="&#xe9cb;" d="M441.379 183.172c0-9.751-7.904-17.655-17.655-17.655h-35.31c-9.751 0-17.655 7.904-17.655 17.655s7.904 17.655 17.655 17.655h35.31c9.751 0 17.655-7.904 17.655-17.655z" />
<glyph unicode="&#xe9cc;" d="M723.862 677.517c-9.751 0-17.655 7.904-17.655 17.655v35.31c0 9.751 7.904 17.655 17.655 17.655s17.655-7.904 17.655-17.655v-35.31c0-9.751-7.904-17.655-17.655-17.655z" />
<glyph unicode="&#xe9cd;" d="M723.862 571.586c-9.751 0-17.655 7.904-17.655 17.655v35.31c0 9.751 7.904 17.655 17.655 17.655s17.655-7.904 17.655-17.655v-35.31c0-9.751-7.904-17.655-17.655-17.655z" />
<glyph unicode="&#xe9ce;" d="M794.483 642.207h-35.31c-9.751 0-17.655 7.904-17.655 17.655s7.904 17.655 17.655 17.655h35.31c9.751 0 17.655-7.904 17.655-17.655s-7.904-17.655-17.655-17.655z" />
<glyph unicode="&#xe9cf;" d="M688.552 642.207h-35.31c-9.751 0-17.655 7.904-17.655 17.655s7.904 17.655 17.655 17.655h35.31c9.751 0 17.655-7.904 17.655-17.655s-7.904-17.655-17.655-17.655z" />
<glyph unicode="&#xe9d0;" d="M829.793 553.754v-103.283c-11.476-1.942-23.305-3.531-35.31-4.767v108.050c0 9.751 7.904 17.655 17.655 17.655s17.655-7.904 17.655-17.655z" />
<glyph unicode="&#xe9d1;" d="M229.517 553.754v-108.050c-12.006 1.236-23.834 2.825-35.31 4.767v103.283c0 9.751 7.904 17.655 17.655 17.655s17.655-7.904 17.655-17.655z" />
<glyph unicode="&#xe9d2;" d="M584.739 410.571c-15.143-15.162-37.929-19.705-57.729-11.511s-32.712 27.512-32.712 48.94 12.912 40.746 32.712 48.94c19.8 8.194 42.587 3.651 57.729-11.511 20.653-20.679 20.653-54.179 0-74.858z" />
<glyph unicode="&#xe9d3;" d="M72.739 483.31c0.212-1.766 28.637-238.874 28.425-237.109 12.972-106.418 103.245-186.467 210.45-186.615h400.772c107.205 0.148 197.478 80.198 210.45 186.615l28.425 237.109z" />
<glyph unicode="&#xe9d4;" d="M933.729 494.239l-10.823-90.377h-117.513l6.744 86.916-35.31 2.719-6.85-89.635h-136.934l2.542 87.764-35.31 1.024-2.56-88.788h-171.432l-2.56 88.788-35.31-1.024 2.542-87.764h-136.934l-6.85 89.635-35.31-2.719 6.691-86.916h-117.442c-5.756 47.987-10.734 89.459-10.84 90.342-0.643 6.343-4.657 11.847-10.5 14.398s-12.608 1.754-17.697-2.085c-5.090-3.84-7.714-10.125-6.866-16.444 0.106-0.9 7.203-60.028 14.283-119.066 7.062-58.58 14.018-116.983 14.124-118.113 14.060-115.282 111.863-201.99 227.999-202.134h400.772c116.129 0.153 213.922 86.859 227.981 202.134l28.425 237.144zM918.669 368.552c-3.072-25.618-6.091-50.706-8.474-70.621h-112.993l5.438 70.621zM767.241 368.552l-5.438-70.621h-131.831l2.048 70.621zM746.055 192h-121.821c2.172 20.021 3.849 40.748 4.484 62.517l0.247 8.104h130.207l-0.477-6.215c-1.715-21.883-5.951-43.495-12.623-64.406zM435.324 192c-2.313 20.215-4.043 41.313-4.696 63.559l-0.212 7.062h163.275l-0.212-7.062c-0.653-22.228-2.383-43.326-4.696-63.559zM277.981 192c-6.641 20.903-10.847 42.503-12.535 64.371l-0.477 6.25h130.119l0.247-8.104c0.636-21.786 2.313-42.496 4.484-62.517zM596.745 368.552l-2.030-70.621h-165.376l-2.030 70.621zM391.945 368.552l2.048-70.621h-131.796l-5.455 70.621zM226.745 297.931h-112.993l-8.457 70.621h115.977zM118.29 257.112c0 1.871-0.282 3.655-0.477 5.508h111.704l0.689-8.969c1.625-20.851 5.255-41.497 10.84-61.652h-102.1c-10.562 20.342-17.419 42.402-20.25 65.148zM162.269 156.69h90.977c10.694-26.241 26.653-50.011 46.892-69.844-53.64 3.205-103.555 28.491-137.869 69.844zM292.281 156.69h112.163c3.371-24.27 9.85-48.005 19.279-70.621h-40.607c-34.993 0-68.378 26.483-90.836 70.621zM464.896 86.069c-4.414 3.284-15.89 21.645-24.717 70.621h143.713c-8.828-48.975-20.339-67.337-24.717-70.621zM600.276 86.069c9.427 22.618 15.912 46.352 19.297 70.621h112.181c-22.475-44.032-55.861-70.621-90.871-70.621zM723.862 86.846c20.239 19.832 36.198 43.603 46.892 69.844h90.977c-34.315-41.352-84.229-66.639-137.869-69.844zM885.054 192h-102.082c5.586 20.166 9.217 40.824 10.84 61.687l0.671 8.934h111.457l-0.653-5.473c-2.826-22.744-9.677-44.804-20.233-65.148z" />
<glyph unicode="&#xe9d5;" d="M850.273 688.287l-83.686 18.538c-37.829 20.355-82.296 24.496-123.233 11.476l-63.382 65.324 50.494 32.132c33.233 21.093 74.127 26.308 111.59 14.23s67.61-40.197 82.264-76.729z" />
<glyph unicode="&#xe9d6;" d="M643.354 744.783c-0.706-0.177-1.589-0.53-2.295-0.706l-199.857-93.043-121.291 44.138c-3.531 1.236-7.239 2.472-10.946 3.531-42.902 12.182-89.159 14.654-127.47-9.357l-17.832 6.532 42.372 67.796c15.41 24.45 37.203 44.229 63.029 57.203 21.799 10.96 45.868 16.645 70.268 16.596 22.018-0.031 43.787-4.662 63.912-13.594l2.119-0.883 39.371-17.479h0.177c36.927 15.688 79.163 12.53 113.346-8.474l21.716-13.418z" />
<glyph unicode="&#xe9d7;" d="M900.414 661.274l8.828-80.861h-794.483l8.828 90.394 57.909 36.193c37.996 23.845 84.323 30.454 127.47 18.185 3.708-1.059 7.415-2.295 10.946-3.531l121.291-44.138 199.857 66.56c0.706 0.177 1.589 0.53 2.295 0.706 40.937 13.020 85.404 8.879 123.233-11.476l83.686-45.021z" />
<glyph unicode="&#xe9d8;" d="M441.203 677.517l-97.457-32.662c-1.81-0.65-3.727-0.949-5.65-0.883-8.472 0.254-15.568 6.492-16.905 14.861s3.461 16.508 11.432 19.39l55.614 18.538z" />
<glyph unicode="&#xe9d9;" d="M444.734 805.517l-74.328-44.668c-2.744-1.572-5.842-2.423-9.004-2.472-6.22 0.053-11.967 3.328-15.183 8.651-5.002 8.34-2.318 19.154 6.003 24.188l53.142 31.779z" />
<glyph unicode="&#xe9da;" d="M35.31 589.241h953.379c19.501 0 35.31-15.809 35.31-35.31v-35.31c0-19.501-15.809-35.31-35.31-35.31h-953.379c-19.501 0-35.31 15.809-35.31 35.31v35.31c0 19.501 15.809 35.31 35.31 35.31z" />
<glyph unicode="&#xe9db;" d="M123.586 695.172v-105.931h-70.621v105.931c0.058 19.477 15.833 35.252 35.31 35.31 19.441-0.144 35.166-15.869 35.31-35.31z" />
<glyph unicode="&#xe9dc;" d="M971.034 695.172v-105.931h-70.621v105.931c0.058 19.477 15.833 35.252 35.31 35.31 19.441-0.144 35.166-15.869 35.31-35.31z" />
<glyph unicode="&#xe9dd;" d="M659.525-64h242.983c47.927 0 86.78 38.853 86.78 86.78v196.521c-0.010 39.117-22.114 74.873-57.101 92.368-29.565 14.769-50.276 42.796-55.713 75.394l-8.678 52.259-88.22 17.356-85.339-17.356-8.678-52.259c-5.432-32.59-26.128-60.615-55.678-75.394-35.003-17.482-57.123-53.242-57.136-92.368v-196.521c0-47.927 38.853-86.78 86.78-86.78z" />
<glyph unicode="&#xe9de;" d="M659.525 213.695h-17.356c-9.585 0-17.356 7.771-17.356 17.356s7.771 17.356 17.356 17.356h17.356c9.585 0 17.356-7.771 17.356-17.356s-7.771-17.356-17.356-17.356z" />
<glyph unicode="&#xe9df;" d="M919.864 213.695h-190.915c-9.585 0-17.356 7.771-17.356 17.356s7.771 17.356 17.356 17.356h190.915c9.585 0 17.356-7.771 17.356-17.356s-7.771-17.356-17.356-17.356z" />
<glyph unicode="&#xe9e0;" d="M485.966 421.966c-7.649-0.002-14.397 5.004-16.614 12.324s0.618 15.229 6.982 19.472c96.412 64.269 96.412 136.105 96.412 193.831 0 9.585 7.771 17.356 17.356 17.356s17.356-7.771 17.356-17.356c0-59.010 0-148.133-111.876-222.711-2.843-1.907-6.191-2.923-9.615-2.916z" />
<glyph unicode="&#xe9e1;" d="M1005.273 740.847l-15.256-10.9c-11.877-8.499-21.504-19.764-28.047-32.82-15.162-30.35-46.171-49.527-80.098-49.534h-48.788v-104.136h-104.136v104.136h-138.847c-21.504-0.203-42.207 8.149-57.549 23.218s-24.066 35.618-24.249 57.123c1.274 42.216 35.831 75.798 78.067 75.863h398.735c15.084-0.009 28.435-9.757 33.037-24.121s-0.599-30.057-12.87-38.829z" />
<glyph unicode="&#xe9e2;" d="M676.881 560.814h208.271c19.171 0 34.712-15.541 34.712-34.712v-52.068c0-19.171-15.541-34.712-34.712-34.712h-208.271c-19.171 0-34.712 15.541-34.712 34.712v52.068c0 19.171 15.541 34.712 34.712 34.712z" />
<glyph unicode="&#xe9e3;" d="M381.831 734.373c0-9.585-7.771-17.356-17.356-17.356s-17.356 7.771-17.356 17.356c0 9.585 7.771 17.356 17.356 17.356s17.356-7.771 17.356-17.356z" />
<glyph unicode="&#xe9e4;" d="M295.051 734.373c0-9.585-7.771-17.356-17.356-17.356s-17.356 7.771-17.356 17.356c0 9.585 7.771 17.356 17.356 17.356s17.356-7.771 17.356-17.356z" />
<glyph unicode="&#xe9e5;" d="M295.051 803.797c0-9.585-7.771-17.356-17.356-17.356s-17.356 7.771-17.356 17.356c0 9.585 7.771 17.356 17.356 17.356s17.356-7.771 17.356-17.356z" />
<glyph unicode="&#xe9e6;" d="M208.271 873.22c0-9.585-7.771-17.356-17.356-17.356s-17.356 7.771-17.356 17.356c0 9.585 7.771 17.356 17.356 17.356s17.356-7.771 17.356-17.356z" />
<glyph unicode="&#xe9e7;" d="M121.492 942.644c0-9.585-7.771-17.356-17.356-17.356s-17.356 7.771-17.356 17.356c0 9.585 7.771 17.356 17.356 17.356s17.356-7.771 17.356-17.356z" />
<glyph unicode="&#xe9e8;" d="M121.492 526.102c0-9.585-7.771-17.356-17.356-17.356s-17.356 7.771-17.356 17.356c0 9.585 7.771 17.356 17.356 17.356s17.356-7.771 17.356-17.356z" />
<glyph unicode="&#xe9e9;" d="M208.271 595.525c0-9.585-7.771-17.356-17.356-17.356s-17.356 7.771-17.356 17.356c0 9.585 7.771 17.356 17.356 17.356s17.356-7.771 17.356-17.356z" />
<glyph unicode="&#xe9ea;" d="M295.051 664.949c0-9.585-7.771-17.356-17.356-17.356s-17.356 7.771-17.356 17.356c0 9.585 7.771 17.356 17.356 17.356s17.356-7.771 17.356-17.356z" />
<glyph unicode="&#xe9eb;" d="M208.271 734.373c0-9.585-7.771-17.356-17.356-17.356s-17.356 7.771-17.356 17.356c0 9.585 7.771 17.356 17.356 17.356s17.356-7.771 17.356-17.356z" />
<glyph unicode="&#xe9ec;" d="M121.492 734.373c0-9.585-7.771-17.356-17.356-17.356s-17.356 7.771-17.356 17.356c0 9.585 7.771 17.356 17.356 17.356s17.356-7.771 17.356-17.356z" />
<glyph unicode="&#xe9ed;" d="M34.712 734.373c0-9.585-7.771-17.356-17.356-17.356s-17.356 7.771-17.356 17.356c0 9.585 7.771 17.356 17.356 17.356s17.356-7.771 17.356-17.356z" />
<glyph unicode="&#xe9ee;" d="M260.339 439.322c-9.585 0-17.356 7.771-17.356 17.356v34.712c0 9.585 7.771 17.356 17.356 17.356s17.356-7.771 17.356-17.356v-34.712c0-9.585-7.771-17.356-17.356-17.356z" />
<glyph unicode="&#xe9ef;" d="M260.339 335.186c-9.585 0-17.356 7.771-17.356 17.356v34.712c0 9.585 7.771 17.356 17.356 17.356s17.356-7.771 17.356-17.356v-34.712c0-9.585-7.771-17.356-17.356-17.356z" />
<glyph unicode="&#xe9f0;" d="M225.627 404.61h-34.712c-9.585 0-17.356 7.771-17.356 17.356s7.771 17.356 17.356 17.356h34.712c9.585 0 17.356-7.771 17.356-17.356s-7.771-17.356-17.356-17.356z" />
<glyph unicode="&#xe9f1;" d="M329.763 404.61h-34.712c-9.585 0-17.356 7.771-17.356 17.356s7.771 17.356 17.356 17.356h34.712c9.585 0 17.356-7.771 17.356-17.356s-7.771-17.356-17.356-17.356z" />
<glyph unicode="&#xe9f2;" d="M121.492 231.051c-4.603 0.001-9.017 1.83-12.271 5.085l-26.034 26.034c-6.577 6.81-6.483 17.635 0.211 24.33s17.52 6.789 24.33 0.211l26.034-26.034c4.962-4.964 6.446-12.427 3.761-18.912s-9.013-10.713-16.031-10.715z" />
<glyph unicode="&#xe9f3;" d="M43.39 309.153c-4.603 0.001-9.017 1.83-12.271 5.085l-26.034 26.034c-4.512 4.358-6.321 10.811-4.733 16.879s6.327 10.807 12.395 12.395c6.068 1.588 12.521-0.221 16.879-4.733l26.034-26.034c4.962-4.964 6.446-12.427 3.761-18.912s-9.013-10.713-16.031-10.715z" />
<glyph unicode="&#xe9f4;" d="M17.356 231.051c-7.019 0.001-13.346 4.23-16.031 10.715s-1.202 13.948 3.761 18.912l26.034 26.034c6.81 6.577 17.635 6.483 24.33-0.211s6.789-17.52 0.211-24.33l-26.034-26.034c-3.254-3.255-7.668-5.084-12.271-5.085z" />
<glyph unicode="&#xe9f5;" d="M95.458 309.153c-7.019 0.001-13.346 4.23-16.031 10.715s-1.202 13.948 3.761 18.912l26.034 26.034c6.81 6.577 17.635 6.483 24.33-0.211s6.789-17.52 0.211-24.33l-26.034-26.034c-3.254-3.255-7.668-5.084-12.271-5.085z" />
<glyph unicode="&#xe9f6;" d="M381.831 109.559c-0.031-14.451-4.583-28.531-13.017-40.266-4.384-6.293-9.849-11.758-16.141-16.141-24.038-17.357-56.494-17.357-80.532 0-6.293 4.384-11.758 9.849-16.141 16.141-17.357 24.038-17.357 56.494 0 80.532 4.384 6.293 9.849 11.758 16.141 16.141 24.038 17.357 56.494 17.357 80.532 0 6.293-4.384 11.758-9.849 16.141-16.141 8.434-11.735 12.986-25.814 13.017-40.266z" />
<glyph unicode="&#xe9f7;" d="M381.831 231.051c-2.35-24.297-12.591-47.157-29.158-65.085-24.038 17.357-56.494 17.357-80.532 0-16.567 17.928-26.808 40.788-29.158 65.085 0 28.811 31.067 52.068 69.424 52.068s69.424-23.257 69.424-52.068z" />
<glyph unicode="&#xe9f8;" d="M381.831-11.932c0-28.811-31.067-52.068-69.424-52.068s-69.424 23.257-69.424 52.068c2.35 24.297 12.591 47.157 29.158 65.085 24.038-17.357 56.494-17.357 80.532 0 16.567-17.928 26.808-40.788 29.158-65.085z" />
<glyph unicode="&#xe9f9;" d="M485.966 109.559c0-38.357-23.257-69.424-52.068-69.424-24.297 2.35-47.157 12.591-65.085 29.158 17.357 24.038 17.357 56.494 0 80.532 17.928 16.567 40.788 26.808 65.085 29.158 28.811 0 52.068-31.067 52.068-69.424z" />
<glyph unicode="&#xe9fa;" d="M242.983 109.559c0.031-14.451 4.583-28.531 13.017-40.266-17.928-16.567-40.788-26.808-65.085-29.158-28.811 0-52.068 31.067-52.068 69.424s23.257 69.424 52.068 69.424c24.297-2.35 47.157-12.591 65.085-29.158-8.434-11.735-12.986-25.814-13.017-40.266z" />
<glyph unicode="&#xe9fb;" d="M976.098 391.767c19.626 19.449 30.63 45.959 30.546 73.589-0.077 51.972-38.426 95.947-89.904 103.094 12.843 4.686 23.257 8.678 31.414 11.628 10.378 5.021 19.828 11.77 27.943 19.959 19.626 19.449 30.63 45.959 30.546 73.589 0 57.513-46.623 104.136-104.136 104.136h-520.678c-9.035 0.030-18.031-1.196-26.728-3.645l-0.694-0.174c-6.422-1.562-277.521-103.962-277.521-103.962l-0.347-0.174c-17.446-4.634-33.33-13.864-45.993-26.728-19.626-19.449-30.63-45.959-30.546-73.589 0-57.513 46.623-104.136 104.136-104.136-57.477-0.086-104.050-46.659-104.136-104.136 0-57.513 46.623-104.136 104.136-104.136-57.477-0.086-104.050-46.659-104.136-104.136 0-57.513 46.623-104.136 104.136-104.136h520.678c15.96-0.043 31.709 3.642 45.993 10.761h0.174l277.695 104.136c41.017 20.235 63.995 64.897 56.612 110.034s-43.394 80.15-88.72 86.262l31.588 11.802c10.378 5.021 19.828 11.77 27.943 19.959z" />
<glyph unicode="&#xe9fc;" d="M728.949 569.492c-0.13-39.577-22.557-75.701-57.969-93.375h-0.174c-14.284-7.119-30.033-10.803-45.993-10.761h-520.678c-57.513 0-104.136 46.623-104.136 104.136-0.084 27.631 10.92 54.14 30.546 73.589 12.663 12.864 28.547 22.095 45.993 26.728l0.347 0.174c8.875 2.448 18.042 3.675 27.249 3.645h520.678c57.513 0 104.136-46.623 104.136-104.136z" />
<glyph unicode="&#xe9fd;" d="M728.949 361.22c-0.13-39.577-22.557-75.701-57.969-93.375h-0.174c-14.284-7.119-30.033-10.803-45.993-10.761h-520.678c-57.513 0-104.136 46.623-104.136 104.136 0.086 57.477 46.659 104.050 104.136 104.136h520.678c57.513 0 104.136-46.623 104.136-104.136z" />
<glyph unicode="&#xe9fe;" d="M728.949 152.949c-0.13-39.577-22.557-75.701-57.969-93.375h-0.174c-14.284-7.119-30.033-10.803-45.993-10.761h-520.678c-57.513 0-104.136 46.623-104.136 104.136 0.086 57.477 46.659 104.050 104.136 104.136h520.678c27.618 0 54.106-10.971 73.635-30.501s30.501-46.017 30.501-73.635z" />
<glyph unicode="&#xe9ff;" d="M1006.644 673.627c0.084-27.631-10.92-54.14-30.546-73.589-8.116-8.189-17.565-14.938-27.943-19.959-8.157-2.951-18.571-6.942-31.414-11.628-46.34-17.529-124.789-47.035-245.76-92.334 43.404 21.43 66.318 69.942 55.301 117.077s-53.062 80.464-101.468 80.433h-520.678c-9.206 0.030-18.374-1.196-27.249-3.645 0 0 271.1 102.4 277.521 103.962l0.694 0.174c8.697 2.448 17.693 3.675 26.728 3.645h520.678c57.513 0 104.136-46.623 104.136-104.136z" />
<glyph unicode="&#xea00;" d="M1006.644 465.356c0.084-27.631-10.92-54.14-30.546-73.589-8.116-8.189-17.565-14.938-27.943-19.959l-31.588-11.802-245.586-92.16c43.404 21.43 66.318 69.942 55.301 117.077s-53.062 80.464-101.468 80.433c15.96-0.043 31.709 3.642 45.993 10.761h0.174c120.971 45.299 199.42 74.804 245.76 92.334 51.478-7.148 89.826-51.123 89.904-103.094z" />
<glyph unicode="&#xea01;" d="M642.169 552.136h-555.39c-9.585 0-17.356 7.771-17.356 17.356s7.771 17.356 17.356 17.356h555.39c9.585 0 17.356-7.771 17.356-17.356s-7.771-17.356-17.356-17.356z" />
<glyph unicode="&#xea02;" d="M642.169 343.864h-555.39c-9.585 0-17.356 7.771-17.356 17.356s7.771 17.356 17.356 17.356h555.39c9.585 0 17.356-7.771 17.356-17.356s-7.771-17.356-17.356-17.356z" />
<glyph unicode="&#xea03;" d="M642.169 135.593h-555.39c-9.585 0-17.356 7.771-17.356 17.356s7.771 17.356 17.356 17.356h555.39c9.585 0 17.356-7.771 17.356-17.356s-7.771-17.356-17.356-17.356z" />
<glyph unicode="&#xea04;" d="M156.203 864.542c-9.585 0-17.356 7.771-17.356 17.356v34.712c0 9.585 7.771 17.356 17.356 17.356s17.356-7.771 17.356-17.356v-34.712c0-9.585-7.771-17.356-17.356-17.356z" />
<glyph unicode="&#xea05;" d="M156.203 760.407c-9.585 0-17.356 7.771-17.356 17.356v34.712c0 9.585 7.771 17.356 17.356 17.356s17.356-7.771 17.356-17.356v-34.712c0-9.585-7.771-17.356-17.356-17.356z" />
<glyph unicode="&#xea06;" d="M121.492 829.831h-34.712c-9.585 0-17.356 7.771-17.356 17.356s7.771 17.356 17.356 17.356h34.712c9.585 0 17.356-7.771 17.356-17.356s-7.771-17.356-17.356-17.356z" />
<glyph unicode="&#xea07;" d="M225.627 829.831h-34.712c-9.585 0-17.356 7.771-17.356 17.356s7.771 17.356 17.356 17.356h34.712c9.585 0 17.356-7.771 17.356-17.356s-7.771-17.356-17.356-17.356z" />
<glyph unicode="&#xea08;" d="M1006.644-37.966c-4.603 0.001-9.017 1.83-12.271 5.085l-26.034 26.034c-6.577 6.81-6.483 17.635 0.211 24.33s17.52 6.789 24.33 0.211l26.034-26.034c4.962-4.964 6.446-12.427 3.761-18.912s-9.013-10.713-16.031-10.715z" />
<glyph unicode="&#xea09;" d="M928.542 40.136c-4.603 0.001-9.017 1.83-12.271 5.085l-26.034 26.034c-6.577 6.81-6.483 17.635 0.211 24.33s17.52 6.789 24.33 0.211l26.034-26.034c4.962-4.964 6.446-12.427 3.761-18.912s-9.013-10.713-16.031-10.715z" />
<glyph unicode="&#xea0a;" d="M902.508-37.966c-7.019 0.001-13.346 4.23-16.031 10.715s-1.202 13.948 3.761 18.912l26.034 26.034c6.81 6.577 17.635 6.483 24.33-0.211s6.789-17.52 0.211-24.33l-26.034-26.034c-3.254-3.255-7.668-5.084-12.271-5.085z" />
<glyph unicode="&#xea0b;" d="M980.61 40.136c-7.019 0.001-13.346 4.23-16.031 10.715s-1.202 13.948 3.761 18.912l26.034 26.034c6.81 6.577 17.635 6.483 24.33-0.211s6.789-17.52 0.211-24.33l-26.034-26.034c-3.254-3.255-7.668-5.084-12.271-5.085z" />
<glyph unicode="&#xea0c;" d="M812.138 924.69v-88.276h-176.552v88.276c0.058 19.477 15.833 35.252 35.31 35.31h105.931c19.477-0.058 35.252-15.833 35.31-35.31z" />
<glyph unicode="&#xea0d;" d="M847.448 818.759v-88.276h-247.172v88.276c0.058 19.477 15.833 35.252 35.31 35.31h176.552c19.477-0.058 35.252-15.833 35.31-35.31z" />
<glyph unicode="&#xea0e;" d="M350.808 218.483l-174.257-17.655-141.241 17.655c22.517 13.762 39.554 34.918 48.199 59.851 9.534 20.833 17.832 46.963 40.96 58.968 29.661 15.36 57.203-9.357 76.977-27.366 42.372-38.665 84.568-88.982 149.363-91.454z" />
<glyph unicode="&#xea0f;" d="M441.379 59.586c-9.751 0-17.655-7.904-17.655-17.655v-17.655c0-48.753 39.522-88.276 88.276-88.276h423.724c48.753 0 88.276 39.522 88.276 88.276v503.349c0.003 28.143-11.175 55.133-31.073 75.034l-145.479 145.479h-247.172l-145.479-145.479c-19.898-19.901-31.076-46.892-31.073-75.034v-61.97c0-9.751 7.904-17.655 17.655-17.655zM925.308 476.072c-6.569-6.664-15.536-10.415-24.894-10.415s-18.324 3.752-24.894 10.415l-141.241 141.241c-13.748 13.748-13.748 36.039 0 49.788s36.039 13.748 49.788 0l141.241-141.241c6.69-6.555 10.46-15.527 10.46-24.894s-3.77-18.339-10.46-24.894z" />
<glyph unicode="&#xea10;" d="M723.862 412.69v-317.793c-0.058-19.477-15.833-35.252-35.31-35.31h-247.172v388.414h247.172c19.477-0.058 35.252-15.833 35.31-35.31z" />
<glyph unicode="&#xea11;" d="M368.287 198.709l-25.070-200.916c-4.45-35.32-34.492-61.805-70.091-61.793h-175.492c-35.599-0.012-65.641 26.474-70.091 61.793l-5.473 44.138-4.414 35.134-4.414 35.487-4.414 35.134-6.356 51.023c-0.605 5.007 0.96 10.033 4.299 13.811s8.136 5.948 13.179 5.962h330.858c5.043-0.014 9.839-2.184 13.179-5.962s4.905-8.805 4.299-13.811z" />
<glyph unicode="&#xea12;" d="M123.586 130.207c0-9.751-7.904-17.655-17.655-17.655h-92.69l-4.414 35.134c0.696 0.146 1.408 0.206 2.119 0.177h94.985c9.751 0 17.655-7.904 17.655-17.655z" />
<glyph unicode="&#xea13;" d="M123.586 59.586c0-9.751-7.904-17.655-17.655-17.655h-83.862l-4.414 35.134c0.696 0.146 1.408 0.206 2.119 0.177h86.157c9.751 0 17.655-7.904 17.655-17.655z" />
<glyph unicode="&#xea14;" d="M282.483 465.655c-9.751 0-17.655 7.904-17.655 17.655v35.31c0 9.751 7.904 17.655 17.655 17.655s17.655-7.904 17.655-17.655v-35.31c0-9.751-7.904-17.655-17.655-17.655z" />
<glyph unicode="&#xea15;" d="M282.483 359.724c-9.751 0-17.655 7.904-17.655 17.655v35.31c0 9.751 7.904 17.655 17.655 17.655s17.655-7.904 17.655-17.655v-35.31c0-9.751-7.904-17.655-17.655-17.655z" />
<glyph unicode="&#xea16;" d="M247.172 430.345h-35.31c-9.751 0-17.655 7.904-17.655 17.655s7.904 17.655 17.655 17.655h35.31c9.751 0 17.655-7.904 17.655-17.655s-7.904-17.655-17.655-17.655z" />
<glyph unicode="&#xea17;" d="M353.103 430.345h-35.31c-9.751 0-17.655 7.904-17.655 17.655s7.904 17.655 17.655 17.655h35.31c9.751 0 17.655-7.904 17.655-17.655s-7.904-17.655-17.655-17.655z" />
<glyph unicode="&#xea18;" d="M158.897 553.931c-4.682 0.001-9.172 1.862-12.482 5.173l-26.483 26.483c-4.59 4.433-6.43 10.997-4.815 17.17s6.436 10.993 12.609 12.609c6.173 1.616 12.737-0.225 17.17-4.815l26.483-26.483c5.048-5.049 6.558-12.642 3.825-19.238s-9.168-10.898-16.308-10.899z" />
<glyph unicode="&#xea19;" d="M79.448 633.379c-4.682 0.001-9.172 1.862-12.482 5.173l-26.483 26.483c-6.691 6.928-6.595 17.939 0.215 24.749s17.822 6.906 24.749 0.215l26.483-26.483c5.048-5.049 6.558-12.642 3.825-19.238s-9.168-10.898-16.308-10.899z" />
<glyph unicode="&#xea1a;" d="M52.966 553.931c-7.14 0.002-13.576 4.303-16.308 10.899s-1.222 14.189 3.825 19.238l26.483 26.483c6.928 6.691 17.939 6.595 24.749-0.215s6.906-17.822 0.215-24.749l-26.483-26.483c-3.31-3.311-7.8-5.172-12.482-5.173z" />
<glyph unicode="&#xea1b;" d="M132.414 633.379c-7.14 0.002-13.576 4.303-16.308 10.899s-1.222 14.189 3.825 19.238l26.483 26.483c6.928 6.691 17.939 6.595 24.749-0.215s6.906-17.822 0.215-24.749l-26.483-26.483c-3.31-3.311-7.8-5.172-12.482-5.173z" />
<glyph unicode="&#xea1c;" d="M416.542 760.407c0 28.756-23.312 52.068-52.068 52.068 28.756 0 52.068 23.312 52.068 52.068s-23.312 52.068-52.068 52.068h-190.915c-28.756 0-52.068-23.312-52.068-52.068s23.312-52.068 52.068-52.068c-28.756 0-52.068-23.312-52.068-52.068s23.312-52.068 52.068-52.068c-28.756 0-52.068-23.312-52.068-52.068s23.312-52.068 52.068-52.068c-28.756 0-52.068-23.312-52.068-52.068s23.312-52.068 52.068-52.068h190.915c28.756 0 52.068 23.312 52.068 52.068s-23.312 52.068-52.068 52.068c28.756 0 52.068 23.312 52.068 52.068s-23.312 52.068-52.068 52.068c28.756 0 52.068 23.312 52.068 52.068z" />
<glyph unicode="&#xea1d;" d="M785.009 413.115l-211.569-234.132 148.914-164.881-117.795-26.034c-2.43 0-19.491 25.687-21.747 25.166l-79.49 87.995-79.49-87.995c-2.256 0.521-25.114-22.268-27.544-22.268l-111.998 23.135 148.914 164.881-211.742 234.305 76.488 43.39 63.922-43.39 141.451-156.551 141.451 156.551 68.261 52.068 72.149-52.068z" />
<glyph unicode="&#xea1e;" d="M1006.644 66.169c-38.342 0-69.424 31.082-69.424 69.424v52.068c0 19.171-15.541 34.712-34.712 34.712-38.342 0-69.424 31.082-69.424 69.424v121.492c0 9.585 7.771 17.356 17.356 17.356s17.356-7.771 17.356-17.356v-121.492c0-19.171 15.541-34.712 34.712-34.712 38.342 0 69.424-31.082 69.424-69.424v-52.068c0-19.171 15.541-34.712 34.712-34.712 9.585 0 17.356-7.771 17.356-17.356s-7.771-17.356-17.356-17.356z" />
<glyph unicode="&#xea1f;" d="M902.508 552.136h34.712c38.342 0 69.424-31.082 69.424-69.424s-31.082-69.424-69.424-69.424h-867.797c-38.342 0-69.424 31.082-69.424 69.424s31.082 69.424 69.424 69.424z" />
<glyph unicode="&#xea20;" d="M884.632 569.492l-133.988-17.356-142.666 17.356c7.289 262.595 97.367 355.449 128.087 378.359 6.023 4.685 14.457 4.685 20.48 0 30.72-22.91 120.797-115.764 128.087-378.359z" />
<glyph unicode="&#xea21;" d="M607.458 569.492h277.695c9.585 0 17.356-7.771 17.356-17.356v-52.068c0-9.585-7.771-17.356-17.356-17.356h-277.695c-9.585 0-17.356 7.771-17.356 17.356v52.068c0 9.585 7.771 17.356 17.356 17.356z" />
<glyph unicode="&#xea22;" d="M694.237 638.915c0-9.585-7.771-17.356-17.356-17.356s-17.356 7.771-17.356 17.356c0 9.585 7.771 17.356 17.356 17.356s17.356-7.771 17.356-17.356z" />
<glyph unicode="&#xea23;" d="M520.678 170.305c0-9.585-7.771-17.356-17.356-17.356s-17.356 7.771-17.356 17.356c0 9.585 7.771 17.356 17.356 17.356s17.356-7.771 17.356-17.356z" />
<glyph unicode="&#xea24;" d="M711.593 725.695c0-9.585-7.771-17.356-17.356-17.356s-17.356 7.771-17.356 17.356c0 9.585 7.771 17.356 17.356 17.356s17.356-7.771 17.356-17.356z" />
<glyph unicode="&#xea25;" d="M728.949 812.475c0-9.585-7.771-17.356-17.356-17.356s-17.356 7.771-17.356 17.356c0 9.585 7.771 17.356 17.356 17.356s17.356-7.771 17.356-17.356z" />
<glyph unicode="&#xea26;" d="M833.085 638.915c0-9.585-7.771-17.356-17.356-17.356s-17.356 7.771-17.356 17.356c0 9.585 7.771 17.356 17.356 17.356s17.356-7.771 17.356-17.356z" />
<glyph unicode="&#xea27;" d="M815.729 725.695c0-9.585-7.771-17.356-17.356-17.356s-17.356 7.771-17.356 17.356c0 9.585 7.771 17.356 17.356 17.356s17.356-7.771 17.356-17.356z" />
<glyph unicode="&#xea28;" d="M798.373 812.475c0-9.585-7.771-17.356-17.356-17.356s-17.356 7.771-17.356 17.356c0 9.585 7.771 17.356 17.356 17.356s17.356-7.771 17.356-17.356z" />
<glyph unicode="&#xea29;" d="M416.542 656.271c0-28.756-23.312-52.068-52.068-52.068h-190.915c-28.756 0-52.068 23.312-52.068 52.068s23.312 52.068 52.068 52.068h190.915c28.756 0 52.068-23.312 52.068-52.068z" />
<glyph unicode="&#xea2a;" d="M416.542 760.407c0-28.756-23.312-52.068-52.068-52.068h-190.915c-28.756 0-52.068 23.312-52.068 52.068s23.312 52.068 52.068 52.068h190.915c28.756 0 52.068-23.312 52.068-52.068z" />
<glyph unicode="&#xea2b;" d="M416.542 864.542c0-28.756-23.312-52.068-52.068-52.068h-190.915c-28.756 0-52.068 23.312-52.068 52.068s23.312 52.068 52.068 52.068h190.915c28.756 0 52.068-23.312 52.068-52.068z" />
<glyph unicode="&#xea2c;" d="M451.254-20.61c-0.142-19.112-15.6-34.57-34.712-34.712h-208.271c-19.147 0.057-34.655 15.565-34.712 34.712 0.142 19.112 15.6 34.57 34.712 34.712h208.271c2.454-0.021 4.899-0.312 7.289-0.868 15.963-3.429 27.378-17.518 27.422-33.844z" />
<glyph unicode="&#xea2d;" d="M833.085-20.61c-0.142-19.112-15.6-34.57-34.712-34.712h-208.271c-19.147 0.057-34.655 15.565-34.712 34.712 0.096 16.308 11.489 30.368 27.422 33.844 2.391 0.555 4.835 0.846 7.289 0.868h208.271c19.147-0.057 34.655-15.565 34.712-34.712z" />
<glyph unicode="&#xea2e;" d="M1024 767.382v-275.244c-0.019-5.227-2.354-10.177-6.375-13.517s-9.316-4.726-14.458-3.785l-288.839 52.789c-27.96-22.314-64.2-31.454-99.399-25.070l-260.767 48.022c-29.661-33.368-72.386-54.378-114.406-44.314l-225.986 50.317c-8.017 1.808-13.726 8.908-13.771 17.126v238.874c0.045 5.435 2.59 10.546 6.901 13.857s9.906 4.451 15.168 3.092l265.71-69.914c2.386 4.753 5.162 9.3 8.298 13.594 28.647 41.616 79.858 61.442 129.059 49.964l192.794-44.668c1.412 1.942 2.825 3.884 4.414 5.826 23.428 29.273 58.903 46.296 96.397 46.257l290.428-45.727c8.537-1.443 14.797-8.821 14.83-17.479z" />
<glyph unicode="&#xea2f;" d="M388.414 279.764c-0.804-31.873-18.733-60.835-46.902-75.767s-62.202-13.516-89.032 3.707c-26.83 17.223-42.289 47.576-40.441 79.405 3.937 64.883 58.827 115.659 79.907 131.672 4.855 3.678 11.564 3.678 16.419 0 21.928-16.684 80.049-70.497 80.049-139.017z" />
<glyph unicode="&#xea30;" d="M812.138 279.764c-0.804-31.873-18.733-60.835-46.902-75.767s-62.202-13.516-89.032 3.707c-26.83 17.223-42.289 47.576-40.441 79.405 3.937 64.883 58.827 115.659 79.907 131.672 4.855 3.678 11.564 3.678 16.419 0 21.928-16.684 80.049-70.497 80.049-139.017z" />
<glyph unicode="&#xea31;" d="M582.621 118.272c-0.571-20.254-9.924-39.258-25.626-52.065s-36.198-18.149-56.153-14.637c-35.73 4.78-61.654 36.414-59.321 72.386 3.143 49.911 47.069 88.964 63.929 101.288 3.92 2.834 9.215 2.834 13.135 0 17.532-12.906 64.035-54.272 64.035-106.973z" />
<glyph unicode="&#xea32;" d="M272.066 718.654c-2.853-6.424-9.214-10.572-16.243-10.593-2.42 0.042-4.812 0.521-7.062 1.412-4.286 1.894-7.644 5.415-9.333 9.786s-1.571 9.235 0.329 13.519l15.36 35.487 32.662-8.651z" />
<glyph unicode="&#xea33;" d="M430.963 630.025l-21.716-55.614c-4.327-10.858-9.708-21.266-16.066-31.073l-38.488 7.062c9.126 11.087 16.454 23.538 21.716 36.899l21.716 55.437c3.967 8.348 13.701 12.224 22.32 8.888s13.207-12.756 10.519-21.599z" />
<glyph unicode="&#xea34;" d="M801.545 615.901l-24.011-61.087c-4.891-12.626-11.613-24.464-19.95-35.134l-41.313 7.592c12.585 10.998 22.335 24.866 28.425 40.43l24.011 61.263c3.608 9.068 13.884 13.495 22.952 9.887s13.495-13.884 9.887-22.952z" />
<glyph unicode="&#xea35;" d="M617.931 778.505c-4.442-7.961-7.882-16.441-10.24-25.247l-18.361-66.56c-2.095-7.628-9.039-12.908-16.949-12.888-1.617-0.025-3.227 0.213-4.767 0.706-4.52 1.225-8.357 4.217-10.648 8.301s-2.844 8.918-1.534 13.415l18.361 66.383c2.271 8.283 5.346 16.325 9.181 24.011z" />
<glyph unicode="&#xea36;" d="M741.517 306.759l12.359 74.47c3.37 20.196 14.391 38.317 30.773 50.6 27.005 20.266 63.857 21.292 91.948 2.56l38.841-25.847c13.222-8.812 23.503-21.381 29.519-36.087l26.924-65.695-125.899-26.483z" />
<glyph unicode="&#xea37;" d="M600.276 130.207v-105.931c0.058-19.477 15.833-35.252 35.31-35.31h0.53v-17.655c-0.058-19.477-15.833-35.252-35.31-35.31h-565.495c-19.477 0.058-35.252 15.833-35.31 35.31v812.138c0.058 19.477 15.833 35.252 35.31 35.31h388.943l201.446-201.446c6.664-6.641 10.412-15.662 10.417-25.070v-374.996c-23.008-23.118-35.899-54.424-35.84-87.040z" />
<glyph unicode="&#xea38;" d="M681.313 818.759h-257.059l124.822 124.822c6.623 6.63 15.61 10.356 24.982 10.356s18.359-3.726 24.982-10.356l94.632-94.632c5.070-5.028 6.612-12.616 3.907-19.224s-9.125-10.937-16.265-10.966z" />
<glyph unicode="&#xea39;" d="M494.345 271.448c0-97.507-79.045-176.552-176.552-176.552s-176.552 79.045-176.552 176.552c0 121.344 124.345 256.83 164.334 295.194 6.829 6.547 17.605 6.547 24.435 0 39.989-38.365 164.334-173.85 164.334-295.194z" />
<glyph unicode="&#xea3a;" d="M317.793 147.862c-68.223 0.078-123.508 55.364-123.586 123.586 0 9.751 7.904 17.655 17.655 17.655s17.655-7.904 17.655-17.655c0.058-48.729 39.547-88.217 88.276-88.276 9.751 0 17.655-7.904 17.655-17.655s-7.904-17.655-17.655-17.655z" />
<glyph unicode="&#xea3b;" d="M158.897 41.931c0-19.501-15.809-35.31-35.31-35.31s-35.31 15.809-35.31 35.31c0 19.501 15.809 35.31 35.31 35.31s35.31-15.809 35.31-35.31z" />
<glyph unicode="&#xea3c;" d="M564.966 553.931c0-29.252-23.713-52.966-52.966-52.966s-52.966 23.713-52.966 52.966c0 29.252 23.713 52.966 52.966 52.966s52.966-23.713 52.966-52.966z" />
<glyph unicode="&#xea3d;" d="M141.241 606.897c-9.751 0-17.655 7.904-17.655 17.655v35.31c0 9.751 7.904 17.655 17.655 17.655s17.655-7.904 17.655-17.655v-35.31c0-9.751-7.904-17.655-17.655-17.655z" />
<glyph unicode="&#xea3e;" d="M141.241 500.966c-9.751 0-17.655 7.904-17.655 17.655v35.31c0 9.751 7.904 17.655 17.655 17.655s17.655-7.904 17.655-17.655v-35.31c0-9.751-7.904-17.655-17.655-17.655z" />
<glyph unicode="&#xea3f;" d="M105.931 571.586h-35.31c-9.751 0-17.655 7.904-17.655 17.655s7.904 17.655 17.655 17.655h35.31c9.751 0 17.655-7.904 17.655-17.655s-7.904-17.655-17.655-17.655z" />
<glyph unicode="&#xea40;" d="M211.862 571.586h-35.31c-9.751 0-17.655 7.904-17.655 17.655s7.904 17.655 17.655 17.655h35.31c9.751 0 17.655-7.904 17.655-17.655s-7.904-17.655-17.655-17.655z" />
<glyph unicode="&#xea41;" d="M564.966 412.69c0-9.751-7.904-17.655-17.655-17.655s-17.655 7.904-17.655 17.655c0 9.751 7.904 17.655 17.655 17.655s17.655-7.904 17.655-17.655z" />
<glyph unicode="&#xea42;" d="M264.828 24.276c0-9.751-7.904-17.655-17.655-17.655s-17.655 7.904-17.655 17.655c0 9.751 7.904 17.655 17.655 17.655s17.655-7.904 17.655-17.655z" />
<glyph unicode="&#xea43;" d="M123.586 430.345c0-9.751-7.904-17.655-17.655-17.655s-17.655 7.904-17.655 17.655c0 9.751 7.904 17.655 17.655 17.655s17.655-7.904 17.655-17.655z" />
<glyph unicode="&#xea44;" d="M725.451 183.172h-1.589c-29.216-0.087-52.878-23.75-52.966-52.966v-105.931c-0.055-19.273-15.511-34.965-34.781-35.31h-0.53c-19.477 0.058-35.252 15.833-35.31 35.31v105.931c-0.077 62.453 46.57 115.093 108.579 122.527l45.162-29.096z" />
<glyph unicode="&#xea45;" d="M105.931 730.483h-35.31c-9.751 0-17.655 7.904-17.655 17.655s7.904 17.655 17.655 17.655h35.31c9.751 0 17.655-7.904 17.655-17.655s-7.904-17.655-17.655-17.655z" />
<glyph unicode="&#xea46;" d="M388.414 730.483h-211.862c-9.751 0-17.655 7.904-17.655 17.655s7.904 17.655 17.655 17.655h211.862c9.751 0 17.655-7.904 17.655-17.655s-7.904-17.655-17.655-17.655z" />
<glyph unicode="&#xea47;" d="M1023.823 263.327l-71.327-300.138c-3.829-15.92-18.053-27.154-34.428-27.189h-105.931c-16.374 0.035-30.599 11.269-34.428 27.189l-6.179 25.777-8.121 34.781-8.651 35.84-8.298 34.781-8.474 35.84-8.298 34.781-4.237 18.185-16.596 69.561-2.472 10.593c-2.478 10.485-0.034 21.527 6.638 29.987s16.84 13.411 27.613 13.445h248.938c10.774-0.034 20.942-4.985 27.613-13.445s9.116-19.502 6.638-29.987z" />
<glyph unicode="&#xea48;" d="M847.448 147.862c0-9.751-7.904-17.655-17.655-17.655h-91.807l-8.298 34.781c1.323 0.361 2.689 0.539 4.061 0.53h96.044c9.751 0 17.655-7.904 17.655-17.655z" />
<glyph unicode="&#xea49;" d="M865.103 77.241c0-9.751-7.904-17.655-17.655-17.655h-92.69l-8.298 34.781c1.323 0.361 2.689 0.539 4.061 0.53h96.927c9.751 0 17.655-7.904 17.655-17.655z" />
<glyph unicode="&#xea4a;" d="M882.759 6.621c0-9.751-7.904-17.655-17.655-17.655h-93.572l-8.121 34.781c1.323 0.361 2.689 0.539 4.061 0.53h97.633c9.751 0 17.655-7.904 17.655-17.655z" />
<glyph unicode="&#xea4b;" d="M564.966 209.655l52.966 547.31h223.868c14.108-0.046 26.854-8.428 32.486-21.363l21.010-49.258 75.741-176.552v-282.483z" />
<glyph unicode="&#xea4c;" d="M114.759 174.345h-61.793v617.931c0.058 19.477 15.833 35.252 35.31 35.31h494.345c19.477-0.058 35.252-15.833 35.31-35.31v-617.931z" />
<glyph unicode="&#xea4d;" d="M899.354 676.988c-79.448-14.83-184.143-53.495-192.441-153.953-0.506 1.415-0.745 2.912-0.706 4.414v141.241c0 9.751 7.904 17.655 17.655 17.655h171.432z" />
<glyph unicode="&#xea4e;" d="M971.034 509.793h-247.172c-4.081-0.060-8.041 1.386-11.123 4.061-2.901 2.335-4.949 5.562-5.826 9.181 8.298 100.458 112.993 139.123 192.441 153.953l15.713-36.723z" />
<glyph unicode="&#xea4f;" d="M776.828 421.517h-70.621c-9.751 0-17.655 7.904-17.655 17.655s7.904 17.655 17.655 17.655h70.621c9.751 0 17.655-7.904 17.655-17.655s-7.904-17.655-17.655-17.655z" />
<glyph unicode="&#xea50;" d="M512.177 421.517h-70.797v35.31h70.797c7.577 0.003 14.289 4.888 16.622 12.096s-0.244 15.1-6.382 19.542l-170.514 123.922c-2.976 2.191-6.58 3.361-10.275 3.337h-12.359c-3.661 0.033-7.235-1.119-10.187-3.284l-170.637-123.992c-6.127-4.451-8.692-12.341-6.351-19.544s9.053-12.078 16.626-12.077h70.797v-35.31h-70.797c-22.856 0.014-43.108 14.731-50.181 36.465s0.639 45.551 19.108 59.015l170.602 123.957c8.992 6.599 19.867 10.134 31.020 10.081h12.359c11.188 0.045 22.094-3.508 31.108-10.134l170.478-123.886c13.629-9.967 21.705-25.823 21.751-42.708 0.042-14.013-5.506-27.465-15.415-37.374s-23.361-15.457-37.374-15.415z" />
<glyph unicode="&#xea51;" d="M335.448 615.724c-9.751 0-17.655 7.904-17.655 17.655v14.371c-0.581 23.201 9.824 45.315 28.072 59.657 4.57 3.304 7.265 8.609 7.239 14.248 0 9.751-7.904 17.655-17.655 17.655s-17.655-7.904-17.655-17.655-7.904-17.655-17.655-17.655-17.655 7.904-17.655 17.655c-0.002 24.98 17.448 46.565 41.874 51.796s49.186-7.315 59.414-30.105c10.228-22.79 3.142-49.628-17.002-64.399-9.185-7.688-14.242-19.232-13.665-31.197v-14.371c0-9.751-7.904-17.655-17.655-17.655z" />
<glyph unicode="&#xea52;" d="M264.828 492.138h141.241c19.501 0 35.31-15.809 35.31-35.31v-52.966c0-19.501-15.809-35.31-35.31-35.31h-141.241c-19.501 0-35.31 15.809-35.31 35.31v52.966c0 19.501 15.809 35.31 35.31 35.31z" />
<glyph unicode="&#xea53;" d="M971.034 421.517v-70.621h-88.276c-9.751 0-17.655 7.904-17.655 17.655v35.31c0 9.751 7.904 17.655 17.655 17.655z" />
<glyph unicode="&#xea54;" d="M326.621 227.31c-22.692 54.462-82.983 82.842-139.416 65.627s-90.616-74.416-79.045-132.271 65.125-97.508 123.838-91.694c58.713 5.814 103.451 55.2 103.451 114.2 0 15.151-3 30.152-8.828 44.138zM220.69 139.034c-24.377 0-44.138 19.761-44.138 44.138s19.761 44.138 44.138 44.138 44.138-19.761 44.138-44.138-19.761-44.138-44.138-44.138z" />
<glyph unicode="&#xea55;" d="M264.828 183.172c0-24.377-19.761-44.138-44.138-44.138s-44.138 19.761-44.138 44.138c0 24.377 19.761 44.138 44.138 44.138s44.138-19.761 44.138-44.138z" />
<glyph unicode="&#xea56;" d="M909.241 227.31c-22.692 54.462-82.983 82.842-139.416 65.627s-90.616-74.416-79.045-132.271 65.125-97.508 123.838-91.694c58.713 5.814 103.451 55.2 103.451 114.2 0 15.151-3 30.152-8.828 44.138zM803.31 139.034c-24.377 0-44.138 19.761-44.138 44.138s19.761 44.138 44.138 44.138 44.138-19.761 44.138-44.138-19.761-44.138-44.138-44.138z" />
<glyph unicode="&#xea57;" d="M847.448 183.172c0-24.377-19.761-44.138-44.138-44.138s-44.138 19.761-44.138 44.138c0 24.377 19.761 44.138 44.138 44.138s44.138-19.761 44.138-44.138z" />
<glyph unicode="&#xea58;" d="M105.931 183.172c-0.007-15.152 2.993-30.154 8.828-44.138h-70.621c-24.377 0-44.138 19.761-44.138 44.138s19.761 44.138 44.138 44.138h70.621c-5.834-13.984-8.835-28.986-8.828-44.138z" />
<glyph unicode="&#xea59;" d="M688.552 183.172c-0.007-15.152 2.993-30.154 8.828-44.138h-370.759c11.77 28.248 11.77 60.028 0 88.276h370.759c-5.834-13.984-8.835-28.986-8.828-44.138z" />
<glyph unicode="&#xea5a;" d="M1024 183.172c0.038-11.718-4.6-22.966-12.886-31.252s-19.534-12.924-31.252-12.886h-70.621c11.77 28.249 11.77 60.028 0 88.276h70.621c24.377 0 44.138-19.761 44.138-44.138z" />
<glyph unicode="&#xea5b;" d="M953.379 960h-882.759c-39.003 0-70.621-31.618-70.621-70.621v-882.759c0-39.003 31.618-70.621 70.621-70.621h882.759c39.003 0 70.621 31.618 70.621 70.621v882.759c0 39.003-31.618 70.621-70.621 70.621z" />
<glyph unicode="&#xea5c;" d="M423.724 960v-247.172h-423.724v176.552c0 39.003 31.618 70.621 70.621 70.621z" />
</font>
</defs>
</svg>
